<?xml version="1.0" encoding="utf-8"?>
<!-- Generator: Adobe Illustrator 19.2.1, SVG Export Plug-In . SVG Version: 6.00 Build 0)  -->
<svg version="1.1" id="Layer_1" xmlns="http://www.w3.org/2000/svg" xmlns:xlink="http://www.w3.org/1999/xlink" x="0px" y="0px"
	 viewBox="0 0 24 24" style="enable-background:new 0 0 24 24;" xml:space="preserve">
<style type="text/css">
	.st0{fill:url(#SVGID_1_);}
</style>
<linearGradient id="SVGID_1_" gradientUnits="userSpaceOnUse" x1="20.3401" y1="20.3401" x2="3.6601" y2="3.6601">
	<stop  offset="0" style="stop-color:#99CCEE"/>
	<stop  offset="1" style="stop-color:#1166BB"/>
</linearGradient>
<path class="st0" d="M12,0.2C5.494,0.2,0.2,5.493,0.2,12S5.493,23.8,12,23.8S23.8,18.507,23.8,12S18.507,0.2,12,0.2z M12,22.8
	C6.045,22.8,1.2,17.955,1.2,12S6.045,1.2,12,1.2S22.8,6.045,22.8,12S17.955,22.8,12,22.8z M12.4,11.662V6.971
	c0.711,0.147,1.359,0.541,1.799,1.129c0.167,0.222,0.48,0.265,0.7,0.1C15.12,8.034,15.165,7.721,15,7.5
	c-0.629-0.839-1.575-1.371-2.6-1.529V4.9c0-0.276-0.224-0.5-0.5-0.5s-0.5,0.224-0.5,0.5v1.036C9.55,6.117,8.1,7.503,8.1,9.2
	c0,2.046,2.247,2.878,3.3,3.201v4.648c-0.951-0.12-2.09-0.625-2.865-1.321c-0.205-0.184-0.521-0.167-0.706,0.038
	s-0.168,0.521,0.037,0.706c0.956,0.859,2.354,1.482,3.534,1.603V19.2c0,0.276,0.224,0.5,0.5,0.5s0.5-0.224,0.5-0.5v-1.154
	c1.754-0.258,3.1-1.61,3.1-3.247C15.5,12.876,13.513,12.026,12.4,11.662z M9.1,9.2c0-1.151,1.002-2.099,2.3-2.265v4.408
	C9.859,10.801,9.1,10.098,9.1,9.2z M12.4,17.039v-4.31c1.408,0.532,2.1,1.212,2.1,2.071C14.5,15.892,13.6,16.805,12.4,17.039z"/>
</svg>
