<?xml version="1.0" encoding="utf-8"?>
<!-- Generator: Adobe Illustrator 19.2.1, SVG Export Plug-In . SVG Version: 6.00 Build 0)  -->
<svg version="1.1" id="Layer_1" xmlns="http://www.w3.org/2000/svg" xmlns:xlink="http://www.w3.org/1999/xlink" x="0px" y="0px"
	 viewBox="0 0 24 24" style="enable-background:new 0 0 24 24;" xml:space="preserve">
<style type="text/css">
	.st0{fill:#FFFFFF;}
</style>
<path class="st0" d="M21.909,3.293c0.001-0.004,0.003-0.008,0.003-0.012c0.01-0.081-0.005-0.159-0.03-0.233
	c-0.352-1.995-3.972-2.716-7.1-2.716c-3.127,0-6.746,0.721-7.1,2.715C7.662,3.101,7.647,3.159,7.647,3.22
	c0,0.019,0.006,0.044,0.009,0.067C7.655,3.315,7.647,3.34,7.647,3.368c0,0.003,0,0.006,0,0.009s0,0.006,0,0.009V3.58
	C4.784,3.792,1.99,4.649,1.99,6.56c0,0.007,0,0.015,0,0.022v14.157c0,0.129,0.023,0.257,0.052,0.325
	c0.475,1.928,4.113,2.612,7.083,2.612c2.971,0,6.608-0.685,7.065-2.556c0.046-0.121,0.069-0.25,0.069-0.382V20.43
	c1.625-0.123,5.124-0.61,5.59-2.507c0.045-0.123,0.067-0.249,0.067-0.376V3.39c0-0.004,0-0.008,0-0.012c0-0.003,0-0.007,0-0.01
	C21.917,3.342,21.91,3.319,21.909,3.293z M9.092,9.047c2.815,0,4.982-0.66,6.166-1.417l-0.005,3.498
	c-0.202,0.377-2.193,1.706-6.16,1.706c-3.932,0-5.888-1.297-6.101-1.727V7.666C4.136,8.402,6.231,9.047,9.092,9.047z M20.915,4.413
	L20.91,7.969c-0.17,0.304-1.642,1.314-4.65,1.594V6.582c0-0.004,0-0.008,0-0.012c0-0.003,0-0.007,0-0.01
	c0-0.025-0.007-0.048-0.008-0.073c0.001-0.005,0.003-0.01,0.004-0.015c0.01-0.081-0.005-0.16-0.031-0.234
	c-0.03-0.168-0.079-0.329-0.153-0.479C18.144,5.585,19.886,5.047,20.915,4.413z M2.991,12.452c1.145,0.736,3.24,1.381,6.101,1.381
	c2.809,0,4.973-0.657,6.158-1.412l-0.005,3.503c-0.224,0.387-2.212,1.696-6.153,1.696c-3.934,0-5.891-1.299-6.102-1.728
	L2.991,12.452z M16.26,10.567c2.021-0.178,3.666-0.696,4.648-1.309l-0.006,3.51c-0.191,0.315-1.659,1.309-4.642,1.584V10.567z
	 M14.782,1.332c3.239,0,5.812,0.794,6.103,1.84c-0.276,0.375-2.138,1.523-5.706,1.635c-1.375-0.92-3.837-1.283-6.053-1.283
	c-0.158,0-0.318,0.004-0.478,0.007V3.412c0.001-0.013,0.001-0.025,0.001-0.037c0-0.011,0-0.021-0.001-0.032
	C8.687,2.213,11.368,1.332,14.782,1.332z M9.125,4.523c3.244,0,5.821,0.796,6.105,1.845c-0.269,0.406-2.25,1.679-6.138,1.679
	c-3.83,0-5.776-1.227-6.07-1.686C3.315,5.316,5.888,4.523,9.125,4.523z M9.125,22.677c-3.224,0-5.852-0.796-6.135-1.938v-3.5
	c1.145,0.736,3.24,1.382,6.102,1.382c2.803,0,4.964-0.654,6.151-1.407l-0.006,3.611C14.978,21.881,12.35,22.677,9.125,22.677z
	 M16.26,19.423v-4.069c2.016-0.176,3.658-0.691,4.64-1.303l-0.006,3.581C20.673,18.529,18.831,19.225,16.26,19.423z"/>
</svg>
