<?xml version="1.0" encoding="utf-8"?>
<!-- Generator: Adobe Illustrator 21.0.0, SVG Export Plug-In . SVG Version: 6.00 Build 0)  -->
<svg version="1.1" id="Layer_1" xmlns="http://www.w3.org/2000/svg" xmlns:xlink="http://www.w3.org/1999/xlink" x="0px" y="0px"
	 viewBox="0 0 250 194.5" style="enable-background:new 0 0 250 194.5;" xml:space="preserve">
<style type="text/css">
	.st0{fill:#013C81;}
	.st1{fill:#FFFFFF;}
	.st2{fill:#FFCD00;}
	.st3{fill:#231F20;}
	.st4{fill:#525349;}
	.st5{fill:#8B8B84;}
	.st6{fill:#B2BB1E;}
	.st7{fill:#797878;}
	.st8{fill:#F79635;}
	.st9{fill:#EC7408;}
	.st10{fill:#F57C00;}
	.st11{fill:#FFD14B;}
	.st12{fill:#FFC720;}
	.st13{fill:#0F9D59;}
	.st14{fill:#0A6E3D;}
	.st15{fill:#4284F4;}
	.st16{fill:#77777A;}
	.st17{fill:#3274EF;}
	.st18{fill:#3375EF;}
	.st19{fill:#F9B005;}
	.st20{fill:#E43327;}
	.st21{fill:#269A43;}
	.st22{clip-path:url(#SVGID_2_);fill:url(#SVGID_3_);}
	.st23{clip-path:url(#SVGID_5_);fill:url(#SVGID_6_);}
	.st24{clip-path:url(#SVGID_8_);fill:url(#SVGID_9_);}
	.st25{clip-path:url(#SVGID_11_);fill:url(#SVGID_12_);}
	.st26{clip-path:url(#SVGID_14_);fill:url(#SVGID_15_);}
	.st27{clip-path:url(#SVGID_17_);fill:url(#SVGID_18_);}
	.st28{clip-path:url(#SVGID_20_);fill:url(#SVGID_21_);}
	.st29{clip-path:url(#SVGID_23_);}
	.st30{clip-path:url(#SVGID_27_);}
	.st31{clip-path:url(#SVGID_31_);}
	.st32{clip-path:url(#SVGID_35_);}
	.st33{clip-path:url(#SVGID_39_);}
	.st34{clip-path:url(#SVGID_43_);}
	.st35{clip-path:url(#SVGID_47_);}
	.st36{clip-path:url(#SVGID_51_);}
	.st37{clip-path:url(#SVGID_55_);}
	.st38{clip-path:url(#SVGID_59_);fill:url(#SVGID_60_);}
	.st39{fill:#545554;}
	.st40{clip-path:url(#SVGID_62_);fill:url(#SVGID_63_);}
	.st41{clip-path:url(#SVGID_65_);fill:url(#SVGID_66_);}
	.st42{clip-path:url(#SVGID_68_);fill:url(#SVGID_69_);}
	.st43{clip-path:url(#SVGID_71_);fill:url(#SVGID_72_);}
	.st44{clip-path:url(#SVGID_74_);fill:url(#SVGID_75_);}
	.st45{clip-path:url(#SVGID_77_);fill:url(#SVGID_78_);}
	.st46{clip-path:url(#SVGID_80_);fill:url(#SVGID_81_);}
	.st47{clip-path:url(#SVGID_83_);fill:url(#SVGID_84_);}
	.st48{clip-path:url(#SVGID_86_);fill:url(#SVGID_87_);}
	.st49{clip-path:url(#SVGID_89_);}
	.st50{clip-path:url(#SVGID_93_);fill:url(#SVGID_94_);}
	.st51{clip-path:url(#SVGID_96_);}
	.st52{clip-path:url(#SVGID_100_);fill:url(#SVGID_101_);}
	.st53{clip-path:url(#SVGID_103_);}
	.st54{clip-path:url(#SVGID_107_);}
	.st55{clip-path:url(#SVGID_111_);}
	.st56{clip-path:url(#SVGID_115_);}
	.st57{clip-path:url(#SVGID_119_);}
	.st58{clip-path:url(#SVGID_123_);}
	.st59{clip-path:url(#SVGID_127_);}
	.st60{clip-path:url(#SVGID_131_);}
	.st61{clip-path:url(#SVGID_135_);}
	.st62{clip-path:url(#SVGID_139_);}
	.st63{clip-path:url(#SVGID_143_);}
	.st64{clip-path:url(#SVGID_147_);}
	.st65{clip-path:url(#SVGID_151_);}
	.st66{clip-path:url(#SVGID_155_);}
	.st67{clip-path:url(#SVGID_159_);}
	.st68{clip-path:url(#SVGID_163_);}
	.st69{clip-path:url(#SVGID_167_);fill:url(#SVGID_168_);}
	.st70{clip-path:url(#SVGID_170_);fill:url(#SVGID_171_);}
	.st71{clip-path:url(#SVGID_173_);fill:url(#SVGID_174_);}
	.st72{clip-path:url(#SVGID_176_);fill:url(#SVGID_177_);}
	.st73{clip-path:url(#SVGID_179_);fill:url(#SVGID_180_);}
	.st74{clip-path:url(#SVGID_182_);fill:url(#SVGID_183_);}
	.st75{clip-path:url(#SVGID_185_);}
	.st76{clip-path:url(#SVGID_189_);fill:url(#SVGID_190_);}
	.st77{clip-path:url(#SVGID_192_);}
	.st78{clip-path:url(#SVGID_196_);}
	.st79{clip-path:url(#SVGID_200_);}
	.st80{clip-path:url(#SVGID_204_);}
	.st81{clip-path:url(#SVGID_208_);}
	.st82{clip-path:url(#SVGID_212_);}
	.st83{clip-path:url(#SVGID_216_);}
	.st84{clip-path:url(#SVGID_220_);}
	.st85{clip-path:url(#SVGID_224_);}
	.st86{clip-path:url(#SVGID_228_);}
	.st87{clip-path:url(#SVGID_232_);}
	.st88{clip-path:url(#SVGID_236_);}
	.st89{clip-path:url(#SVGID_240_);}
	.st90{clip-path:url(#SVGID_244_);}
	.st91{clip-path:url(#SVGID_248_);fill:url(#SVGID_249_);}
	.st92{clip-path:url(#SVGID_251_);}
	.st93{clip-path:url(#SVGID_255_);}
	.st94{clip-path:url(#SVGID_259_);}
	.st95{clip-path:url(#SVGID_263_);}
	.st96{clip-path:url(#SVGID_267_);}
	.st97{clip-path:url(#SVGID_271_);}
	.st98{clip-path:url(#SVGID_275_);}
	.st99{clip-path:url(#SVGID_279_);}
	.st100{clip-path:url(#SVGID_283_);}
	.st101{clip-path:url(#SVGID_287_);fill:url(#SVGID_288_);}
	.st102{clip-path:url(#SVGID_290_);fill:url(#SVGID_291_);}
	.st103{clip-path:url(#SVGID_293_);fill:url(#SVGID_294_);}
	.st104{clip-path:url(#SVGID_296_);fill:url(#SVGID_297_);}
	.st105{clip-path:url(#SVGID_299_);fill:url(#SVGID_300_);}
	.st106{clip-path:url(#SVGID_302_);fill:url(#SVGID_303_);}
	.st107{clip-path:url(#SVGID_305_);fill:url(#SVGID_306_);}
	.st108{clip-path:url(#SVGID_308_);fill:url(#SVGID_309_);}
	.st109{clip-path:url(#SVGID_311_);fill:url(#SVGID_312_);}
	.st110{clip-path:url(#SVGID_314_);}
	.st111{clip-path:url(#SVGID_318_);fill:url(#SVGID_319_);}
	.st112{clip-path:url(#SVGID_321_);fill:url(#SVGID_322_);}
	.st113{clip-path:url(#SVGID_324_);}
	.st114{clip-path:url(#SVGID_328_);fill:url(#SVGID_329_);}
	.st115{clip-path:url(#SVGID_331_);fill:url(#SVGID_332_);}
	.st116{clip-path:url(#SVGID_334_);fill:url(#SVGID_335_);}
	.st117{clip-path:url(#SVGID_337_);fill:url(#SVGID_338_);}
	.st118{clip-path:url(#SVGID_340_);fill:url(#SVGID_341_);}
	.st119{clip-path:url(#SVGID_343_);fill:url(#SVGID_344_);}
	.st120{clip-path:url(#SVGID_346_);fill:url(#SVGID_347_);}
	.st121{clip-path:url(#SVGID_349_);fill:url(#SVGID_350_);}
	.st122{clip-path:url(#SVGID_352_);fill:url(#SVGID_353_);}
	.st123{clip-path:url(#SVGID_355_);fill:url(#SVGID_356_);}
	.st124{clip-path:url(#SVGID_358_);fill:url(#SVGID_359_);}
	.st125{clip-path:url(#SVGID_361_);fill:url(#SVGID_362_);}
	.st126{clip-path:url(#SVGID_364_);fill:url(#SVGID_365_);}
	.st127{clip-path:url(#SVGID_367_);fill:url(#SVGID_368_);}
	.st128{clip-path:url(#SVGID_370_);fill:url(#SVGID_371_);}
	.st129{clip-path:url(#SVGID_373_);fill:url(#SVGID_374_);}
	.st130{clip-path:url(#SVGID_376_);fill:url(#SVGID_377_);}
	.st131{clip-path:url(#SVGID_379_);fill:url(#SVGID_380_);}
	.st132{clip-path:url(#SVGID_382_);fill:url(#SVGID_383_);}
	.st133{clip-path:url(#SVGID_385_);fill:url(#SVGID_386_);}
	.st134{clip-path:url(#SVGID_388_);fill:url(#SVGID_389_);}
	.st135{clip-path:url(#SVGID_391_);fill:url(#SVGID_392_);}
	.st136{clip-path:url(#SVGID_394_);fill:url(#SVGID_395_);}
	.st137{clip-path:url(#SVGID_397_);fill:url(#SVGID_398_);}
	.st138{clip-path:url(#SVGID_400_);}
	.st139{clip-path:url(#SVGID_404_);}
	.st140{clip-path:url(#SVGID_408_);}
	.st141{clip-path:url(#SVGID_412_);fill:url(#SVGID_413_);}
	.st142{clip-path:url(#SVGID_415_);fill:url(#SVGID_416_);}
	.st143{clip-path:url(#SVGID_418_);fill:url(#SVGID_419_);}
	.st144{clip-path:url(#SVGID_421_);fill:url(#SVGID_422_);}
	.st145{clip-path:url(#SVGID_424_);}
	.st146{clip-path:url(#SVGID_428_);fill:url(#SVGID_429_);}
	.st147{clip-path:url(#SVGID_431_);fill:url(#SVGID_432_);}
	.st148{clip-path:url(#SVGID_434_);}
	.st149{clip-path:url(#SVGID_438_);}
	.st150{clip-path:url(#SVGID_442_);fill:url(#SVGID_443_);}
	.st151{clip-path:url(#SVGID_445_);fill:url(#SVGID_446_);}
	.st152{clip-path:url(#SVGID_448_);fill:url(#SVGID_449_);}
	.st153{clip-path:url(#SVGID_451_);fill:url(#SVGID_452_);}
	.st154{clip-path:url(#SVGID_454_);}
	.st155{clip-path:url(#SVGID_458_);}
	.st156{clip-path:url(#SVGID_462_);}
	.st157{clip-path:url(#SVGID_466_);}
	.st158{clip-path:url(#SVGID_470_);}
	.st159{fill:#010101;}
	.st160{clip-path:url(#SVGID_474_);}
	.st161{clip-path:url(#SVGID_478_);}
	.st162{fill:#1D1D1B;}
	.st163{fill:#E30D17;}
	.st164{fill:#EB610A;}
	.st165{fill:#F69F00;}
</style>
<g id="Layer_2_2_">
	<g>
		<path class="st1" d="M43.3,174.4c-0.7-0.7-1.6-1.3-2.6-1.7c-1-0.4-2.1-0.6-3.2-0.6c-0.6,0-1.3,0.1-1.9,0.2c-0.7,0.1-1.3,0.3-2,0.6
			c-0.6,0.3-1.3,0.6-1.8,1.1c-0.6,0.5-1.1,1.1-1.5,1.8c-0.7-1.1-1.6-2-2.8-2.7c-1.2-0.6-2.5-1-4-1c-0.5,0-1,0-1.6,0.1
			c-0.5,0.1-1.1,0.3-1.6,0.5c-0.5,0.2-1.1,0.5-1.5,0.9c-0.5,0.4-0.9,0.9-1.3,1.5v-2.4h-4.3v20.4h4.3v-11.3c0-0.9,0.1-1.6,0.4-2.3
			c0.3-0.7,0.6-1.2,1.1-1.7s1-0.8,1.6-1c0.6-0.2,1.3-0.4,2-0.4c1.5,0,2.6,0.5,3.4,1.4c0.8,0.9,1.2,2.2,1.2,4v11.4h4.3v-11.3
			c0-0.9,0.1-1.6,0.4-2.3c0.3-0.7,0.6-1.2,1.1-1.7c0.5-0.5,1-0.8,1.6-1c0.6-0.2,1.3-0.4,2-0.4c1.5,0,2.6,0.5,3.4,1.4
			c0.8,0.9,1.2,2.2,1.2,4v11.4h4.3v-12.8c0-1.2-0.2-2.3-0.6-3.3C44.6,176,44,175.2,43.3,174.4"/>
		<path class="st1" d="M66.2,175.2c-0.7-0.9-1.6-1.6-2.6-2.2c-1.1-0.5-2.3-0.8-3.8-0.8c-1.4,0-2.8,0.3-4,0.8
			c-1.2,0.5-2.3,1.3-3.2,2.2c-0.9,1-1.7,2.1-2.2,3.4c-0.5,1.3-0.8,2.8-0.8,4.3c0,1.6,0.3,3,0.8,4.3c0.5,1.3,1.3,2.5,2.2,3.4
			c0.9,1,2,1.7,3.2,2.2c1.2,0.5,2.6,0.8,4,0.8c1.5,0,2.7-0.3,3.8-0.8s1.9-1.3,2.6-2.2v2.5h4.5v-20.4h-4.5V175.2z M66,185.5
			c-0.3,0.8-0.7,1.5-1.3,2.1c-0.5,0.6-1.2,1-1.9,1.4c-0.8,0.3-1.6,0.5-2.5,0.5c-1,0-1.8-0.2-2.6-0.5c-0.8-0.3-1.4-0.8-1.9-1.4
			c-0.5-0.6-0.9-1.3-1.2-2.1c-0.3-0.8-0.4-1.6-0.4-2.5c0-0.9,0.1-1.7,0.4-2.5s0.7-1.5,1.2-2.1c0.5-0.6,1.2-1.1,1.9-1.4
			c0.8-0.3,1.6-0.5,2.6-0.5c0.9,0,1.8,0.2,2.5,0.5c0.8,0.3,1.4,0.8,1.9,1.4c0.5,0.6,1,1.3,1.3,2.1s0.4,1.7,0.4,2.6
			C66.5,183.9,66.3,184.7,66,185.5"/>
		<path class="st1" d="M91.2,182.9c-1.3-1-3-1.6-5.2-2l-2.1-0.3c-0.5-0.1-0.9-0.2-1.3-0.2c-0.4-0.1-0.8-0.2-1.1-0.4
			c-0.3-0.2-0.5-0.4-0.7-0.6c-0.2-0.2-0.3-0.5-0.3-0.9c0-0.7,0.3-1.3,1-1.8c0.7-0.4,1.6-0.7,2.8-0.7c0.6,0,1.3,0.1,1.9,0.2
			c0.6,0.1,1.2,0.3,1.8,0.4c0.6,0.2,1.1,0.4,1.5,0.6c0.5,0.2,0.8,0.4,1.2,0.6l1.9-3.5c-1.1-0.7-2.3-1.2-3.7-1.6
			c-1.4-0.4-2.9-0.6-4.5-0.6c-1.3,0-2.5,0.2-3.5,0.5s-1.9,0.7-2.7,1.3c-0.7,0.6-1.3,1.2-1.7,2.1c-0.4,0.8-0.6,1.7-0.6,2.7
			c0,1.7,0.6,3,1.8,4c1.2,1,2.9,1.7,5.2,2L85,185c1.2,0.2,2.1,0.4,2.7,0.8c0.6,0.4,0.9,0.9,0.9,1.4c0,0.8-0.4,1.4-1.2,1.8
			c-0.8,0.4-1.9,0.7-3.5,0.7c-0.8,0-1.6-0.1-2.3-0.2c-0.7-0.1-1.3-0.3-1.8-0.5c-0.5-0.2-1-0.4-1.5-0.7c-0.4-0.2-0.8-0.5-1.2-0.8
			l-2.1,3.4c0.7,0.6,1.5,1,2.3,1.3s1.6,0.6,2.4,0.8s1.5,0.3,2.2,0.4c0.7,0.1,1.3,0.1,1.8,0.1c1.5,0,2.8-0.2,3.9-0.5
			c1.2-0.3,2.1-0.8,2.9-1.4c0.8-0.6,1.4-1.3,1.8-2.1s0.6-1.7,0.6-2.7C93,185.2,92.4,183.9,91.2,182.9"/>
		<path class="st1" d="M132.9,175.2c-0.8-0.9-1.9-1.7-3.1-2.2c-1.2-0.5-2.5-0.8-3.9-0.8c-1.5,0-2.9,0.3-4.1,0.8s-2.3,1.3-3.2,2.2
			c-0.9,0.9-1.6,2.1-2.1,3.4c-0.5,1.3-0.7,2.8-0.7,4.4c0,1.6,0.3,3.1,0.8,4.4c0.5,1.3,1.2,2.5,2.2,3.4c0.9,0.9,2,1.7,3.3,2.2
			s2.7,0.8,4.2,0.8c1.6,0,3-0.2,4.4-0.6c1.4-0.4,2.7-1.2,4-2.2l-2.2-3.2c-0.9,0.7-1.8,1.2-2.8,1.6s-2.1,0.6-3.1,0.6
			c-0.7,0-1.4-0.1-2.1-0.3c-0.7-0.2-1.3-0.5-1.8-0.9c-0.5-0.4-1-1-1.4-1.6c-0.4-0.7-0.6-1.4-0.8-2.4h15.1c0-0.3,0-0.5,0.1-0.8
			c0-0.3,0-0.6,0-0.9c0-1.6-0.2-3-0.7-4.4C134.4,177.2,133.8,176.1,132.9,175.2 M120.5,181.2c0.1-0.7,0.3-1.4,0.6-2
			c0.3-0.6,0.7-1.2,1.1-1.6c0.4-0.4,1-0.8,1.6-1c0.6-0.2,1.3-0.4,2.1-0.4c1.4,0,2.6,0.4,3.5,1.3c0.9,0.9,1.5,2.1,1.7,3.7H120.5z"/>
		<path class="st1" d="M192.2,175.2c-0.7-0.9-1.6-1.6-2.6-2.2c-1.1-0.5-2.3-0.8-3.8-0.8c-1.4,0-2.8,0.3-4,0.8
			c-1.2,0.5-2.3,1.3-3.2,2.2c-0.9,1-1.7,2.1-2.2,3.4c-0.5,1.3-0.8,2.8-0.8,4.3c0,1.6,0.3,3,0.8,4.3s1.3,2.5,2.2,3.4
			c0.9,1,2,1.7,3.2,2.2c1.2,0.5,2.6,0.8,4,0.8c1.5,0,2.7-0.3,3.8-0.8c1.1-0.5,1.9-1.3,2.6-2.2v2.5h4.5v-20.4h-4.5V175.2z M192,185.5
			c-0.3,0.8-0.7,1.5-1.3,2.1c-0.5,0.6-1.2,1-1.9,1.4c-0.8,0.3-1.6,0.5-2.5,0.5c-1,0-1.8-0.2-2.6-0.5s-1.4-0.8-1.9-1.4
			s-0.9-1.3-1.2-2.1s-0.4-1.6-0.4-2.5c0-0.9,0.1-1.7,0.4-2.5c0.3-0.8,0.7-1.5,1.2-2.1c0.5-0.6,1.2-1.1,1.9-1.4
			c0.8-0.3,1.6-0.5,2.6-0.5c0.9,0,1.8,0.2,2.5,0.5c0.8,0.3,1.4,0.8,1.9,1.4c0.5,0.6,1,1.3,1.3,2.1c0.3,0.8,0.4,1.7,0.4,2.6
			C192.5,183.9,192.3,184.7,192,185.5"/>
		<path class="st1" d="M110.3,189.1c-0.7,0.3-1.4,0.4-2.1,0.4c-0.5,0-0.9-0.1-1.3-0.2c-0.4-0.1-0.7-0.4-1-0.7s-0.5-0.7-0.7-1.2
			c-0.2-0.5-0.3-1.1-0.3-1.8v-8.9h7.2v-4h-7.2v-6.2h-4.5v6.2h-4.1v4.1h4.1v9c0,2.7,0.6,4.7,1.9,6s3.1,1.9,5.4,1.9
			c1.3,0,2.5-0.2,3.5-0.6c0.7-0.3,1.3-0.6,1.9-0.9l-1.5-3.7C111.2,188.7,110.8,188.9,110.3,189.1"/>
		<path class="st1" d="M150.6,172.2c-1.3,0-2.4,0.2-3.4,0.7c-1,0.5-1.9,1.6-2.5,2.5v-2.7h-4.1v20.4h4.1v-11.2c0-0.9,0.1-1.6,0.4-2.3
			c0.2-0.7,0.6-1.3,1-1.7c0.4-0.5,0.9-0.8,1.5-1.1c0.6-0.2,1.3-0.4,2-0.4c0.5,0,1.1,0.1,1.8,0.2c0.3,0.1,0.6,0.1,0.9,0.2l1.3-4.3
			c-0.4-0.1-0.7-0.2-1.1-0.3C151.9,172.2,151.3,172.2,150.6,172.2"/>
		<path class="st1" d="M212.6,172.2c-1.3,0-2.4,0.2-3.4,0.7c-1,0.5-1.9,1.6-2.5,2.5v-2.7h-4.1v20.4h4.1v-11.2c0-0.9,0.1-1.6,0.4-2.3
			c0.2-0.7,0.6-1.3,1-1.7c0.4-0.5,0.9-0.8,1.5-1.1c0.6-0.2,1.3-0.4,2-0.4c0.5,0,1.1,0.1,1.8,0.2c0.3,0.1,0.6,0.1,0.9,0.2l1.3-4.3
			c-0.4-0.1-0.7-0.2-1.1-0.3C213.9,172.2,213.3,172.2,212.6,172.2"/>
		<path class="st1" d="M233.4,164.4v10.8c-0.7-0.9-1.6-1.6-2.6-2.2c-1.1-0.5-2.3-0.8-3.8-0.8c-1.4,0-2.8,0.3-4,0.8
			c-1.2,0.5-2.3,1.3-3.2,2.2c-0.9,1-1.7,2.1-2.2,3.4c-0.5,1.3-0.8,2.8-0.8,4.3c0,1.6,0.3,3,0.8,4.3s1.3,2.5,2.2,3.4
			c0.9,1,2,1.7,3.2,2.2c1.2,0.5,2.6,0.8,4,0.8c1.5,0,2.7-0.3,3.8-0.8s1.9-1.3,2.6-2.2v2.5h4.5v-28.8L233.4,164.4L233.4,164.4z
			 M233.2,185.5c-0.3,0.8-0.7,1.5-1.3,2.1c-0.5,0.6-1.2,1-1.9,1.4c-0.8,0.3-1.6,0.5-2.5,0.5c-1,0-1.8-0.2-2.6-0.5s-1.4-0.8-1.9-1.4
			s-0.9-1.3-1.2-2.1s-0.4-1.6-0.4-2.5c0-0.9,0.1-1.7,0.4-2.5c0.3-0.8,0.7-1.5,1.2-2.1c0.5-0.6,1.2-1.1,1.9-1.4
			c0.8-0.3,1.6-0.5,2.6-0.5c0.9,0,1.8,0.2,2.5,0.5c0.8,0.3,1.4,0.8,1.9,1.4c0.5,0.6,1,1.3,1.3,2.1s0.4,1.7,0.4,2.6
			C233.7,183.9,233.5,184.7,233.2,185.5"/>
		<path class="st1" d="M161.2,178.2c0.6-0.6,1.2-1,2-1.3s1.6-0.5,2.5-0.5c1,0,1.9,0.2,2.8,0.5c0.8,0.3,1.6,0.7,2.2,1.3l2.1-3.6
			c-0.8-0.6-1.7-1.2-2.7-1.6c-1.3-0.5-2.8-0.8-4.4-0.8c-1.6,0-3,0.3-4.4,0.8c-1.3,0.5-2.5,1.3-3.5,2.3c-1,1-1.7,2.1-2.3,3.4
			s-0.8,2.7-0.8,4.3c0,1.5,0.3,3,0.8,4.3c0.6,1.3,1.3,2.4,2.3,3.4c1,1,2.1,1.7,3.5,2.3c1.3,0.5,2.8,0.8,4.4,0.8c1.6,0,3-0.3,4.4-0.8
			c1-0.4,1.9-0.9,2.7-1.6l-2.1-3.6c-0.6,0.5-1.3,1-2.2,1.3c-0.9,0.3-1.8,0.5-2.8,0.5c-0.9,0-1.8-0.2-2.5-0.5c-0.8-0.3-1.5-0.8-2-1.3
			c-0.6-0.6-1-1.3-1.3-2.1s-0.5-1.7-0.5-2.7s0.2-1.9,0.5-2.7C160.2,179.5,160.7,178.8,161.2,178.2"/>
		<path class="st1" d="M247.2,190.2c0.3,0,0.6,0.1,0.8,0.2c0.3,0.1,0.5,0.3,0.7,0.4c0.2,0.2,0.3,0.4,0.5,0.7
			c0.1,0.3,0.2,0.5,0.2,0.8s-0.1,0.6-0.2,0.8c-0.1,0.3-0.3,0.5-0.5,0.7c-0.2,0.2-0.4,0.3-0.7,0.5c-0.3,0.1-0.5,0.2-0.8,0.2
			s-0.6-0.1-0.9-0.2c-0.3-0.1-0.5-0.3-0.7-0.5c-0.2-0.2-0.3-0.4-0.5-0.7c-0.1-0.3-0.2-0.5-0.2-0.8s0.1-0.6,0.2-0.8
			c0.1-0.3,0.3-0.5,0.5-0.7c0.2-0.2,0.4-0.3,0.7-0.4C246.6,190.2,246.9,190.2,247.2,190.2 M247.2,193.8c0.2,0,0.4,0,0.6-0.1
			c0.2-0.1,0.3-0.2,0.5-0.3c0.1-0.1,0.2-0.3,0.3-0.5c0.1-0.2,0.1-0.4,0.1-0.6c0-0.2,0-0.4-0.1-0.6c-0.1-0.2-0.2-0.3-0.3-0.5
			c-0.1-0.1-0.3-0.2-0.5-0.3c-0.2-0.1-0.4-0.1-0.6-0.1s-0.4,0-0.6,0.1c-0.2,0.1-0.3,0.2-0.5,0.3c-0.1,0.1-0.2,0.3-0.3,0.5
			c-0.1,0.2-0.1,0.4-0.1,0.6c0,0.2,0,0.4,0.1,0.6c0.1,0.2,0.2,0.3,0.3,0.5c0.1,0.1,0.3,0.2,0.5,0.3
			C246.8,193.7,247,193.8,247.2,193.8 M247.3,191.3c0.3,0,0.4,0.1,0.6,0.2c0.1,0.1,0.2,0.3,0.2,0.5c0,0.1,0,0.3-0.1,0.4
			c-0.1,0.1-0.2,0.2-0.4,0.2l0.6,0.7h-0.6l-0.5-0.6H247v0.6h-0.5v-1.8h0.8V191.3z M246.9,191.8v0.3h0.4c0.1,0,0.1,0,0.2,0l0.1-0.1
			c0-0.1,0-0.1-0.1-0.1c0,0-0.1,0-0.2,0L246.9,191.8L246.9,191.8z"/>
		<path class="st1" d="M243.7,119.4v-2.5h-1.1v-1.1h2.8v0.7h-1.1v2.8H243.7z M249.3,119.4v-2.5l-0.7,2.1h-0.7l-0.7-2.1v2.5h-0.7
			v-3.5h1.1l0.7,2.1l0.7-2.1h1.1v3.5H249.3z"/>
		<g>
			<path class="st1" d="M95.4,77.1c0-24.6,11.3-46.5,29.2-60.6C111.6,6,95.1,0,76.8,0C34.5,0,0,34.5,0,77.1s34.5,77.1,77.1,77.1
				c18,0,34.5-6.3,47.9-16.5C107,123.6,95.4,101.8,95.4,77.1z"/>
			<path class="st1" d="M172.5,0c-18,0-34.5,6.3-47.9,16.5c18,14.1,29.6,35.9,29.6,60.6S143,123.6,125,137.7
				c13,10.6,29.6,16.5,47.9,16.5c42.6,0,77.1-34.5,77.1-77.1C249.6,34.5,215.1,0,172.5,0z"/>
			<path class="st1" d="M151.4,77.1c0-23.2-10.3-44-26.8-57.4c-16.4,13.4-26.8,34.2-26.8,57.4s10.3,44,26.8,57.4
				C140.7,121.1,151.4,100.4,151.4,77.1z"/>
		</g>
	</g>
</g>
</svg>
