<svg id="Layer_1" data-name="Layer 1" xmlns="http://www.w3.org/2000/svg" viewBox="0 0 23.764 23.764"><defs><style>.cls-1{fill:#fff;}</style></defs><title>domo-icon-play-white</title><g id="Page-1"><g id="domo-icon-arrow-next-right-brand-gradient"><path id="Shape" class="cls-1" d="M12.031.12A11.882,11.882,0,1,0,23.913,12.002,11.89579,11.89579,0,0,0,12.031.12Zm3.856,12.108-5.406,4.221a.28343.28343,0,0,1-.31.033.28879.28879,0,0,1-.166-.266V7.776a.28832.28832,0,0,1,.166-.265.30455.30455,0,0,1,.133-.031.28417.28417,0,0,1,.177.063l5.407,4.22a.29477.29477,0,0,1,.112.233.28916.28916,0,0,1-.113.232Z" transform="translate(-0.149 -0.12)"/></g></g></svg>