<?xml version="1.0" encoding="utf-8"?>
<!-- Generator: Adobe Illustrator 19.2.1, SVG Export Plug-In . SVG Version: 6.00 Build 0)  -->
<svg version="1.1" id="Layer_1" xmlns="http://www.w3.org/2000/svg" xmlns:xlink="http://www.w3.org/1999/xlink" x="0px" y="0px"
	 viewBox="0 0 24 24" style="enable-background:new 0 0 24 24;" xml:space="preserve">
<style type="text/css">
	.st0{fill:url(#SVGID_1_);}
</style>
<linearGradient id="SVGID_1_" gradientUnits="userSpaceOnUse" x1="23.8543" y1="23.8537" x2="0.1467" y2="0.146">
	<stop  offset="0" style="stop-color:#99CCEE"/>
	<stop  offset="1" style="stop-color:#1166BB"/>
</linearGradient>
<path class="st0" d="M10.5,0h-10C0.224,0,0,0.223,0,0.5v23C0,23.776,0.224,24,0.5,24h10c0.276,0,0.5-0.224,0.5-0.5v-23
	C11,0.223,10.776,0,10.5,0z M10,23H1V1h9V23z M3,4h5c0.276,0,0.5-0.224,0.5-0.5S8.276,3,8,3H3C2.724,3,2.5,3.223,2.5,3.5
	S2.724,4,3,4z M3,6h5c0.276,0,0.5-0.224,0.5-0.5S8.276,5,8,5H3C2.724,5,2.5,5.223,2.5,5.5S2.724,6,3,6z M3,8h5
	c0.276,0,0.5-0.224,0.5-0.5S8.276,7,8,7H3C2.724,7,2.5,7.223,2.5,7.5S2.724,8,3,8z M3,10h5c0.276,0,0.5-0.224,0.5-0.5S8.276,9,8,9H3
	C2.724,9,2.5,9.223,2.5,9.5S2.724,10,3,10z M3,15h5c0.276,0,0.5-0.224,0.5-0.5S8.276,14,8,14H3c-0.276,0-0.5,0.224-0.5,0.5
	S2.724,15,3,15z M3,17h5c0.276,0,0.5-0.224,0.5-0.5S8.276,16,8,16H3c-0.276,0-0.5,0.224-0.5,0.5S2.724,17,3,17z M3,19h5
	c0.276,0,0.5-0.224,0.5-0.5S8.276,18,8,18H3c-0.276,0-0.5,0.224-0.5,0.5S2.724,19,3,19z M3,21h5c0.276,0,0.5-0.224,0.5-0.5
	S8.276,20,8,20H3c-0.276,0-0.5,0.224-0.5,0.5S2.724,21,3,21z M23.501,0h-10c-0.276,0-0.5,0.224-0.5,0.5v23
	c0,0.276,0.224,0.5,0.5,0.5h10c0.276,0,0.5-0.224,0.5-0.5v-23C24.001,0.223,23.777,0,23.501,0z M23.001,23h-9V1h9V23z M16.001,4h5
	c0.276,0,0.5-0.224,0.5-0.5S21.277,3,21.001,3h-5c-0.276,0-0.5,0.224-0.5,0.5S15.725,4,16.001,4z M16.001,6h5
	c0.276,0,0.5-0.224,0.5-0.5S21.277,5,21.001,5h-5c-0.276,0-0.5,0.224-0.5,0.5S15.725,6,16.001,6z M16.001,8h5
	c0.276,0,0.5-0.224,0.5-0.5S21.277,7,21.001,7h-5c-0.276,0-0.5,0.224-0.5,0.5S15.725,8,16.001,8z M16.001,10h5
	c0.276,0,0.5-0.224,0.5-0.5S21.277,9,21.001,9h-5c-0.276,0-0.5,0.224-0.5,0.5S15.725,10,16.001,10z M16.001,15h5
	c0.276,0,0.5-0.224,0.5-0.5s-0.224-0.5-0.5-0.5h-5c-0.276,0-0.5,0.224-0.5,0.5S15.725,15,16.001,15z M16.001,17h5
	c0.276,0,0.5-0.224,0.5-0.5s-0.224-0.5-0.5-0.5h-5c-0.276,0-0.5,0.224-0.5,0.5S15.725,17,16.001,17z M16.001,19h5
	c0.276,0,0.5-0.224,0.5-0.5s-0.224-0.5-0.5-0.5h-5c-0.276,0-0.5,0.224-0.5,0.5S15.725,19,16.001,19z M16.001,21h5
	c0.276,0,0.5-0.224,0.5-0.5s-0.224-0.5-0.5-0.5h-5c-0.276,0-0.5,0.224-0.5,0.5S15.725,21,16.001,21z M5.14,11.65
	C5.05,11.74,5,11.87,5,12s0.05,0.26,0.15,0.36c0.1,0.09,0.22,0.14,0.35,0.14s0.25-0.05,0.35-0.15C5.95,12.26,6,12.13,6,12
	s-0.05-0.26-0.15-0.35C5.66,11.46,5.34,11.45,5.14,11.65z M18.149,11.65C18.05,11.74,18,11.87,18,12s0.05,0.26,0.149,0.35
	c0.091,0.1,0.221,0.15,0.351,0.15s0.26-0.05,0.359-0.15C18.95,12.25,19,12.13,19,12s-0.05-0.25-0.15-0.35
	C18.66,11.46,18.33,11.46,18.149,11.65z"/>
</svg>
