<?xml version="1.0" encoding="utf-8"?>
<!-- Generator: Adobe Illustrator 20.0.0, SVG Export Plug-In . SVG Version: 6.00 Build 0)  -->
<svg version="1.1" id="Layer_1" xmlns="http://www.w3.org/2000/svg" xmlns:xlink="http://www.w3.org/1999/xlink" x="0px" y="0px"
	 width="256px" height="57px" viewBox="0 0 256 57" style="enable-background:new 0 0 256 57;" xml:space="preserve">
<style type="text/css">
	.st0{fill:#FFFFFF;}
</style>
<title>dhl</title>
<path class="st0" d="M256,34V0H0v34h38.1l-1.9,3H0v2h34.6l-1.9,3H0v2h31.1l-1.9,2H0v11h256V46.4l-38,0.1l1.9-2.5H256v-2h-34.5l1.9-3
	H256v-2.1l-31-0.2l1.9-2.7C226.9,34,256,34,256,34z M211.9,10l-15.7,22h-24.9L187,10H211.9L211.9,10z M36.9,21L45,10h47.2
	c12,0,15,9.8,11.7,14.3c-2.5,3.3-5.4,7.7-5.4,7.7H80.2c-3.5,0-2.4-1.7-1.8-2.5c1.1-1.5,3-4.5,4.1-6s1.1-2.5-1.1-2.5H36.9L36.9,21z
	 M73.6,46H33.5L50,24h20.3c2.2,0,2.2,0.9,1.1,2.4s-3,4-4.2,5.5c-0.6,0.8-1.6,2.1,1.8,2.1h27.3C94.2,37,86.8,46,73.6,46L73.6,46z
	 M118.7,46H95.2c0,0,8.9-12,8.9-12l23.5,0.1L118.7,46z M152.7,46h-23.5c0,0,8.9-12,8.9-12h23.5L152.7,46z M106.2,32l15.7-22h23.5
	l-9,12h10.5l9-12h23.5l-15.7,22H106.2L106.2,32z M213.8,46H176c-9.6,0-12.2-4.6-9.3-8.6l2.6-3.4h53.4L213.8,46z"/>
</svg>
