<?xml version="1.0" encoding="utf-8"?>
<!-- Generator: Adobe Illustrator 21.0.0, SVG Export Plug-In . SVG Version: 6.00 Build 0)  -->
<svg version="1.1" id="Layer_1" xmlns="http://www.w3.org/2000/svg" xmlns:xlink="http://www.w3.org/1999/xlink" x="0px" y="0px"
	 viewBox="0 0 250 120.3" style="enable-background:new 0 0 250 120.3;" xml:space="preserve">
<style type="text/css">
	.st0{fill:#013C81;}
	.st1{fill:#FFFFFF;}
	.st2{fill:#FFCD00;}
	.st3{fill:#231F20;}
	.st4{fill:#525349;}
	.st5{fill:#8B8B84;}
	.st6{fill:#B2BB1E;}
	.st7{fill:#797878;}
	.st8{fill:#F79635;}
	.st9{fill:#EC7408;}
	.st10{fill:#F57C00;}
	.st11{fill:#FFD14B;}
	.st12{fill:#FFC720;}
	.st13{fill:#0F9D59;}
	.st14{fill:#0A6E3D;}
	.st15{fill:#4284F4;}
	.st16{fill:#77777A;}
	.st17{fill:#3274EF;}
	.st18{fill:#3375EF;}
	.st19{fill:#F9B005;}
	.st20{fill:#E43327;}
	.st21{fill:#269A43;}
</style>
<g>
	<path class="st1" d="M201.2,16.1c-4.9-16.3-37.3-21-72.4-10.4c-1.7,0.5-3.3,1-4.9,1.6c31.4-7.3,58.7-2.5,63,11.9
		c4.8,15.8-19.9,37.1-55,47.7c-0.8,0.2-1.6,0.5-2.4,0.7L145.8,11l-0.1,0l0,0l-4.3,0.3c-8,0.8-16.6,2.5-25.3,5.1
		C81.1,26.9,56.6,48.7,61.5,65c4.9,16.3,37.3,21,72.5,10.4c1.7-0.5,3.3-1,4.9-1.6c-31.4,7.3-58.7,2.5-63-11.9
		c-4.7-15.8,19.9-37.1,55-47.7c0.7-0.2,1.5-0.4,2.2-0.6l-16.1,56.5l4.3-0.3c8-0.8,16.6-2.5,25.3-5.1
		C181.6,54.2,206.1,32.4,201.2,16.1"/>
	<path class="st1" d="M130.9,104.7h0.1c0.1,1.1,0.2,2.6,0.4,3.6l0.6,3.9h-6.5l2.9-3.9C129.2,107.3,130.1,105.8,130.9,104.7
		L130.9,104.7L130.9,104.7z M54,104.7h0.1c0.1,1.1,0.3,2.6,0.4,3.6l0.5,3.9h-6.5l3-3.9C52.4,107.3,53.2,105.8,54,104.7L54,104.7
		L54,104.7z M14.1,104.7c5.2,0,7.8,1.6,7.8,4.5c0,2.3-1.1,4.3-3.1,5.7c-2,1.4-5,2.1-8.5,2.1c-1.1,0-2-0.1-2.8-0.1l3.8-12.1
		C11.9,104.7,12.8,104.7,14.1,104.7L14.1,104.7L14.1,104.7z M238.7,104.6c2.6,0,4.6,0.7,4.6,2.1c0,1.8-2.5,3.1-6,3.1h-2.6l1.5-5.1
		C236.7,104.7,237.5,104.6,238.7,104.6L238.7,104.6L238.7,104.6z M197.9,101.6l-5.7,18.5h18.4l1-3.4h-12l1.4-4.5h10.6l1.1-3.3H202
		l1.3-3.9h11.3l1.1-3.3H197.9L197.9,101.6z M158.4,101.6l-5.7,18.5h6.4l2.4-7.8h10.9l-2.4,7.8h6.4l5.7-18.5h-6.5l-2.2,7.2h-10.9
		l2.3-7.2H158.4L158.4,101.6L158.4,101.6z M127.9,101.6l-14.7,18.4h6.9l3.5-4.8h8.6l0.6,4.8h6.7l-3.5-18.4H127.9L127.9,101.6
		L127.9,101.6z M81.5,101.6l-5.7,18.5h6l2-6.5c0.9-2.9,1.6-5.5,1.9-7.3h0.1c0.8,2.2,1.6,3.9,2.9,6.4l4.2,7.4h6.7l5.7-18.5h-6l-2,6.7
		c-0.8,2.7-1.3,4.8-1.4,6.7h-0.1c-0.7-2-1.5-4-2.7-6.3l-4-7H81.5L81.5,101.6L81.5,101.6z M51,101.6l-14.7,18.4h6.9l3.5-4.8h8.6
		l0.6,4.8h6.7l-3.5-18.4H51L51,101.6L51,101.6z M238.7,101.6c-3,0-6,0.2-8,0.5l-5.6,18.1h6.3l2.2-7.3h1.9c2.5,0,3.8,0.7,4.1,2.9
		c0.3,2.3,0.6,3.9,0.9,4.4h6.6c-0.5-0.8-0.8-3.2-1.2-5.3c-0.3-1.7-1.1-2.9-2.9-3.4v-0.1c3.9-0.8,6.8-2.5,6.8-5.2
		c0-1.7-1.4-2.9-3.3-3.6C244.6,101.8,241.6,101.6,238.7,101.6L238.7,101.6L238.7,101.6z M13.7,101.6c-2.8,0-5.5,0.1-8.1,0.4L0,119.9
		c1.5,0.2,4.7,0.4,8.3,0.4c6.5,0,10.9-0.8,14.4-2.5c3.7-1.8,6.2-5.1,6.2-8.7c0-2.6-1.5-4.4-4-5.7C22.4,102.1,18.6,101.6,13.7,101.6
		L13.7,101.6z"/>
</g>
</svg>
