<?xml version="1.0" encoding="UTF-8" standalone="no"?>
<!DOCTYPE svg PUBLIC "-//W3C//DTD SVG 1.1//EN" "http://www.w3.org/Graphics/SVG/1.1/DTD/svg11.dtd">
<svg version="1.1" xmlns="http://www.w3.org/2000/svg" xmlns:xlink="http://www.w3.org/1999/xlink" preserveAspectRatio="xMidYMid meet" viewBox="0 0 80 80" width="80" height="80"><defs><path d="M63.61 62.53C62.06 62.53 61.08 63.99 61.08 65.42C61.08 67.27 62.41 68.29 63.65 68.29C65.05 68.29 66.15 67.04 66.15 65.4C66.15 63.72 65.02 62.53 63.61 62.53Z" id="g1uZ0FgQji"></path><path d="M63.61 62.53C62.06 62.53 61.08 63.99 61.08 65.42C61.08 67.27 62.41 68.29 63.65 68.29C65.05 68.29 66.15 67.04 66.15 65.4C66.15 63.72 65.02 62.53 63.61 62.53Z" id="a8jCzq2nl"></path><path d="M63.61 62.53C62.06 62.53 61.08 63.99 61.08 65.42C61.08 67.27 62.41 68.29 63.65 68.29C65.05 68.29 66.15 67.04 66.15 65.4C66.15 63.72 65.02 62.53 63.61 62.53Z" id="avTlfGCt8"></path><path d="M63.61 62.53C62.06 62.53 61.08 63.99 61.08 65.42C61.08 67.27 62.41 68.29 63.65 68.29C65.05 68.29 66.15 67.04 66.15 65.4C66.15 63.72 65.02 62.53 63.61 62.53Z" id="b3r2EAUd0e"></path><path d="M63.61 62.53C62.06 62.53 61.08 63.99 61.08 65.42C61.08 67.27 62.41 68.29 63.65 68.29C65.05 68.29 66.15 67.04 66.15 65.4C66.15 63.72 65.02 62.53 63.61 62.53Z" id="b1GA29DUhi"></path><path d="M63.61 62.53C62.06 62.53 61.08 63.99 61.08 65.42C61.08 67.27 62.41 68.29 63.65 68.29C65.05 68.29 66.15 67.04 66.15 65.4C66.15 63.72 65.02 62.53 63.61 62.53Z" id="aiDIviAsC"></path><path d="M63.61 62.53C62.06 62.53 61.08 63.99 61.08 65.42C61.08 67.27 62.41 68.29 63.65 68.29C65.05 68.29 66.15 67.04 66.15 65.4C66.15 63.72 65.02 62.53 63.61 62.53Z" id="c6M819tD8B"></path><path d="M63.61 62.53C62.06 62.53 61.08 63.99 61.08 65.42C61.08 67.27 62.41 68.29 63.65 68.29C65.05 68.29 66.15 67.04 66.15 65.4C66.15 63.72 65.02 62.53 63.61 62.53Z" id="bdWliO9l1"></path><path d="M0 60.12C0 63.68 0 65.65 0 66.04C0 68.66 1.82 70.91 4.66 70.91C7.35 70.91 9.37 69.09 9.37 65.93C9.37 65.55 9.37 63.61 9.37 60.12C9.2 60.12 8.34 60.12 6.81 60.12C6.81 63.61 6.81 65.55 6.81 65.93C6.17 67.5 5.47 68.29 4.69 68.29C3.43 68.29 2.56 67.12 2.56 65.93C2.56 65.55 2.56 63.61 2.56 60.12C2.3 60.12 0.26 60.12 0 60.12Z" id="bFvbjDDq"></path><path d="M0 60.12C0 63.68 0 65.65 0 66.04C0 68.66 1.82 70.91 4.66 70.91C7.35 70.91 9.37 69.09 9.37 65.93C9.37 65.55 9.37 63.61 9.37 60.12C9.2 60.12 8.34 60.12 6.81 60.12C6.81 63.61 6.81 65.55 6.81 65.93C6.17 67.5 5.47 68.29 4.69 68.29C3.43 68.29 2.56 67.12 2.56 65.93C2.56 65.55 2.56 63.61 2.56 60.12C2.3 60.12 0.26 60.12 0 60.12Z" id="c6RMHJ53Qq"></path><path d="M0 60.12C0 63.68 0 65.65 0 66.04C0 68.66 1.82 70.91 4.66 70.91C7.35 70.91 9.37 69.09 9.37 65.93C9.37 65.55 9.37 63.61 9.37 60.12C9.2 60.12 8.34 60.12 6.81 60.12C6.81 63.61 6.81 65.55 6.81 65.93C6.17 67.5 5.47 68.29 4.69 68.29C3.43 68.29 2.56 67.12 2.56 65.93C2.56 65.55 2.56 63.61 2.56 60.12C2.3 60.12 0.26 60.12 0 60.12Z" id="ajyTMxVyZ"></path><path d="M0 60.12C0 63.68 0 65.65 0 66.04C0 68.66 1.82 70.91 4.66 70.91C7.35 70.91 9.37 69.09 9.37 65.93C9.37 65.55 9.37 63.61 9.37 60.12C9.2 60.12 8.34 60.12 6.81 60.12C6.81 63.61 6.81 65.55 6.81 65.93C6.17 67.5 5.47 68.29 4.69 68.29C3.43 68.29 2.56 67.12 2.56 65.93C2.56 65.55 2.56 63.61 2.56 60.12C2.3 60.12 0.26 60.12 0 60.12Z" id="a2Q7vOmNl"></path><path d="M0 60.12C0 63.68 0 65.65 0 66.04C0 68.66 1.82 70.91 4.66 70.91C7.35 70.91 9.37 69.09 9.37 65.93C9.37 65.55 9.37 63.61 9.37 60.12C9.2 60.12 8.34 60.12 6.81 60.12C6.81 63.61 6.81 65.55 6.81 65.93C6.17 67.5 5.47 68.29 4.69 68.29C3.43 68.29 2.56 67.12 2.56 65.93C2.56 65.55 2.56 63.61 2.56 60.12C2.3 60.12 0.26 60.12 0 60.12Z" id="bt2OmoTRW"></path><path d="M0 60.12C0 63.68 0 65.65 0 66.04C0 68.66 1.82 70.91 4.66 70.91C7.35 70.91 9.37 69.09 9.37 65.93C9.37 65.55 9.37 63.61 9.37 60.12C9.2 60.12 8.34 60.12 6.81 60.12C6.81 63.61 6.81 65.55 6.81 65.93C6.17 67.5 5.47 68.29 4.69 68.29C3.43 68.29 2.56 67.12 2.56 65.93C2.56 65.55 2.56 63.61 2.56 60.12C2.3 60.12 0.26 60.12 0 60.12Z" id="bbfQPVBdJ"></path><path d="M0 60.12C0 63.68 0 65.65 0 66.04C0 68.66 1.82 70.91 4.66 70.91C7.35 70.91 9.37 69.09 9.37 65.93C9.37 65.55 9.37 63.61 9.37 60.12C9.2 60.12 8.34 60.12 6.81 60.12C6.81 63.61 6.81 65.55 6.81 65.93C6.17 67.5 5.47 68.29 4.69 68.29C3.43 68.29 2.56 67.12 2.56 65.93C2.56 65.55 2.56 63.61 2.56 60.12C2.3 60.12 0.26 60.12 0 60.12Z" id="b5lQNFC454"></path><path d="M0 60.12C0 63.68 0 65.65 0 66.04C0 68.66 1.82 70.91 4.66 70.91C7.35 70.91 9.37 69.09 9.37 65.93C9.37 65.55 9.37 63.61 9.37 60.12C9.2 60.12 8.34 60.12 6.81 60.12C6.81 63.61 6.81 65.55 6.81 65.93C6.17 67.5 5.47 68.29 4.69 68.29C3.43 68.29 2.56 67.12 2.56 65.93C2.56 65.55 2.56 63.61 2.56 60.12C2.3 60.12 0.26 60.12 0 60.12Z" id="a3fjiKc63W"></path><path d="M14.08 64.87C14.08 63.43 15.03 62.52 16.2 62.52C17.45 62.52 18.33 63.69 18.33 64.87C18.33 65.26 18.33 67.2 18.33 70.68C18.59 70.68 20.63 70.68 20.89 70.68C20.89 67.13 20.89 65.16 20.89 64.76C20.89 62.15 19.07 59.89 16.23 59.89C13.54 59.89 11.52 61.71 11.52 64.87C11.52 65.26 11.52 67.2 11.52 70.68C11.78 70.68 13.83 70.68 14.08 70.68C14.08 67.2 14.08 65.26 14.08 64.87Z" id="e2WFGlvIuR"></path><path d="M14.08 64.87C14.08 63.43 15.03 62.52 16.2 62.52C17.45 62.52 18.33 63.69 18.33 64.87C18.33 65.26 18.33 67.2 18.33 70.68C18.59 70.68 20.63 70.68 20.89 70.68C20.89 67.13 20.89 65.16 20.89 64.76C20.89 62.15 19.07 59.89 16.23 59.89C13.54 59.89 11.52 61.71 11.52 64.87C11.52 65.26 11.52 67.2 11.52 70.68C11.78 70.68 13.83 70.68 14.08 70.68C14.08 67.2 14.08 65.26 14.08 64.87Z" id="b1Zd72E616"></path><path d="M14.08 64.87C14.08 63.43 15.03 62.52 16.2 62.52C17.45 62.52 18.33 63.69 18.33 64.87C18.33 65.26 18.33 67.2 18.33 70.68C18.59 70.68 20.63 70.68 20.89 70.68C20.89 67.13 20.89 65.16 20.89 64.76C20.89 62.15 19.07 59.89 16.23 59.89C13.54 59.89 11.52 61.71 11.52 64.87C11.52 65.26 11.52 67.2 11.52 70.68C11.78 70.68 13.83 70.68 14.08 70.68C14.08 67.2 14.08 65.26 14.08 64.87Z" id="b5I0VBiLt"></path><path d="M14.08 64.87C14.08 63.43 15.03 62.52 16.2 62.52C17.45 62.52 18.33 63.69 18.33 64.87C18.33 65.26 18.33 67.2 18.33 70.68C18.59 70.68 20.63 70.68 20.89 70.68C20.89 67.13 20.89 65.16 20.89 64.76C20.89 62.15 19.07 59.89 16.23 59.89C13.54 59.89 11.52 61.71 11.52 64.87C11.52 65.26 11.52 67.2 11.52 70.68C11.78 70.68 13.83 70.68 14.08 70.68C14.08 67.2 14.08 65.26 14.08 64.87Z" id="aPcZUN98C"></path><path d="M14.08 64.87C14.08 63.43 15.03 62.52 16.2 62.52C17.45 62.52 18.33 63.69 18.33 64.87C18.33 65.26 18.33 67.2 18.33 70.68C18.59 70.68 20.63 70.68 20.89 70.68C20.89 67.13 20.89 65.16 20.89 64.76C20.89 62.15 19.07 59.89 16.23 59.89C13.54 59.89 11.52 61.71 11.52 64.87C11.52 65.26 11.52 67.2 11.52 70.68C11.78 70.68 13.83 70.68 14.08 70.68C14.08 67.2 14.08 65.26 14.08 64.87Z" id="dae3G3Z7P"></path><path d="M14.08 64.87C14.08 63.43 15.03 62.52 16.2 62.52C17.45 62.52 18.33 63.69 18.33 64.87C18.33 65.26 18.33 67.2 18.33 70.68C18.59 70.68 20.63 70.68 20.89 70.68C20.89 67.13 20.89 65.16 20.89 64.76C20.89 62.15 19.07 59.89 16.23 59.89C13.54 59.89 11.52 61.71 11.52 64.87C11.52 65.26 11.52 67.2 11.52 70.68C11.78 70.68 13.83 70.68 14.08 70.68C14.08 67.2 14.08 65.26 14.08 64.87Z" id="a5LEktokI"></path><path d="M14.08 64.87C14.08 63.43 15.03 62.52 16.2 62.52C17.45 62.52 18.33 63.69 18.33 64.87C18.33 65.26 18.33 67.2 18.33 70.68C18.59 70.68 20.63 70.68 20.89 70.68C20.89 67.13 20.89 65.16 20.89 64.76C20.89 62.15 19.07 59.89 16.23 59.89C13.54 59.89 11.52 61.71 11.52 64.87C11.52 65.26 11.52 67.2 11.52 70.68C11.78 70.68 13.83 70.68 14.08 70.68C14.08 67.2 14.08 65.26 14.08 64.87Z" id="b1CSdmv0BS"></path><path d="M14.08 64.87C14.08 63.43 15.03 62.52 16.2 62.52C17.45 62.52 18.33 63.69 18.33 64.87C18.33 65.26 18.33 67.2 18.33 70.68C18.59 70.68 20.63 70.68 20.89 70.68C20.89 67.13 20.89 65.16 20.89 64.76C20.89 62.15 19.07 59.89 16.23 59.89C13.54 59.89 11.52 61.71 11.52 64.87C11.52 65.26 11.52 67.2 11.52 70.68C11.78 70.68 13.83 70.68 14.08 70.68C14.08 67.2 14.08 65.26 14.08 64.87Z" id="n2Mlxvvsbg"></path><path d="M73.19 64.87C73.19 63.43 74.14 62.52 75.31 62.52C76.56 62.52 77.43 63.69 77.43 64.87C77.43 65.26 77.43 67.2 77.43 70.68C77.69 70.68 79.74 70.68 80 70.68C80 67.13 80 65.16 80 64.76C80 62.15 78.17 59.89 75.34 59.89C72.65 59.89 70.63 61.71 70.63 64.87C70.63 65.26 70.63 67.2 70.63 70.68C70.89 70.68 72.93 70.68 73.19 70.68C73.19 67.2 73.19 65.26 73.19 64.87Z" id="c5VGJhCvk"></path><path d="M73.19 64.87C73.19 63.43 74.14 62.52 75.31 62.52C76.56 62.52 77.43 63.69 77.43 64.87C77.43 65.26 77.43 67.2 77.43 70.68C77.69 70.68 79.74 70.68 80 70.68C80 67.13 80 65.16 80 64.76C80 62.15 78.17 59.89 75.34 59.89C72.65 59.89 70.63 61.71 70.63 64.87C70.63 65.26 70.63 67.2 70.63 70.68C70.89 70.68 72.93 70.68 73.19 70.68C73.19 67.2 73.19 65.26 73.19 64.87Z" id="aaeG5SlAz"></path><path d="M73.19 64.87C73.19 63.43 74.14 62.52 75.31 62.52C76.56 62.52 77.43 63.69 77.43 64.87C77.43 65.26 77.43 67.2 77.43 70.68C77.69 70.68 79.74 70.68 80 70.68C80 67.13 80 65.16 80 64.76C80 62.15 78.17 59.89 75.34 59.89C72.65 59.89 70.63 61.71 70.63 64.87C70.63 65.26 70.63 67.2 70.63 70.68C70.89 70.68 72.93 70.68 73.19 70.68C73.19 67.2 73.19 65.26 73.19 64.87Z" id="bt9YHi9Yf"></path><path d="M73.19 64.87C73.19 63.43 74.14 62.52 75.31 62.52C76.56 62.52 77.43 63.69 77.43 64.87C77.43 65.26 77.43 67.2 77.43 70.68C77.69 70.68 79.74 70.68 80 70.68C80 67.13 80 65.16 80 64.76C80 62.15 78.17 59.89 75.34 59.89C72.65 59.89 70.63 61.71 70.63 64.87C70.63 65.26 70.63 67.2 70.63 70.68C70.89 70.68 72.93 70.68 73.19 70.68C73.19 67.2 73.19 65.26 73.19 64.87Z" id="a3ha8Ms50u"></path><path d="M73.19 64.87C73.19 63.43 74.14 62.52 75.31 62.52C76.56 62.52 77.43 63.69 77.43 64.87C77.43 65.26 77.43 67.2 77.43 70.68C77.69 70.68 79.74 70.68 80 70.68C80 67.13 80 65.16 80 64.76C80 62.15 78.17 59.89 75.34 59.89C72.65 59.89 70.63 61.71 70.63 64.87C70.63 65.26 70.63 67.2 70.63 70.68C70.89 70.68 72.93 70.68 73.19 70.68C73.19 67.2 73.19 65.26 73.19 64.87Z" id="d2VdBn8Tv"></path><path d="M73.19 64.87C73.19 63.43 74.14 62.52 75.31 62.52C76.56 62.52 77.43 63.69 77.43 64.87C77.43 65.26 77.43 67.2 77.43 70.68C77.69 70.68 79.74 70.68 80 70.68C80 67.13 80 65.16 80 64.76C80 62.15 78.17 59.89 75.34 59.89C72.65 59.89 70.63 61.71 70.63 64.87C70.63 65.26 70.63 67.2 70.63 70.68C70.89 70.68 72.93 70.68 73.19 70.68C73.19 67.2 73.19 65.26 73.19 64.87Z" id="c961ZHivbI"></path><path d="M73.19 64.87C73.19 63.43 74.14 62.52 75.31 62.52C76.56 62.52 77.43 63.69 77.43 64.87C77.43 65.26 77.43 67.2 77.43 70.68C77.69 70.68 79.74 70.68 80 70.68C80 67.13 80 65.16 80 64.76C80 62.15 78.17 59.89 75.34 59.89C72.65 59.89 70.63 61.71 70.63 64.87C70.63 65.26 70.63 67.2 70.63 70.68C70.89 70.68 72.93 70.68 73.19 70.68C73.19 67.2 73.19 65.26 73.19 64.87Z" id="abhV4ZHw"></path><path d="M73.19 64.87C73.19 63.43 74.14 62.52 75.31 62.52C76.56 62.52 77.43 63.69 77.43 64.87C77.43 65.26 77.43 67.2 77.43 70.68C77.69 70.68 79.74 70.68 80 70.68C80 67.13 80 65.16 80 64.76C80 62.15 78.17 59.89 75.34 59.89C72.65 59.89 70.63 61.71 70.63 64.87C70.63 65.26 70.63 67.2 70.63 70.68C70.89 70.68 72.93 70.68 73.19 70.68C73.19 67.2 73.19 65.26 73.19 64.87Z" id="bYAxBfMDp"></path><path d="M25.79 70.68C24.25 70.68 23.39 70.68 23.22 70.68C23.22 70.68 23.22 70.68 23.22 70.68C23.22 64.34 23.22 60.82 23.22 60.12C23.22 60.12 23.22 60.12 23.22 60.12C24.76 60.12 25.62 60.12 25.79 60.12C25.79 60.12 25.79 60.12 25.79 60.12C25.79 66.45 25.79 69.97 25.79 70.68C25.79 70.68 25.79 70.68 25.79 70.68Z" id="c6PW7Dk4fU"></path><path d="M25.79 70.68C24.25 70.68 23.39 70.68 23.22 70.68C23.22 70.68 23.22 70.68 23.22 70.68C23.22 64.34 23.22 60.82 23.22 60.12C23.22 60.12 23.22 60.12 23.22 60.12C24.76 60.12 25.62 60.12 25.79 60.12C25.79 60.12 25.79 60.12 25.79 60.12C25.79 66.45 25.79 69.97 25.79 70.68C25.79 70.68 25.79 70.68 25.79 70.68Z" id="b1z3h6UfS"></path><path d="M25.79 70.68C24.25 70.68 23.39 70.68 23.22 70.68C23.22 70.68 23.22 70.68 23.22 70.68C23.22 64.34 23.22 60.82 23.22 60.12C23.22 60.12 23.22 60.12 23.22 60.12C24.76 60.12 25.62 60.12 25.79 60.12C25.79 60.12 25.79 60.12 25.79 60.12C25.79 66.45 25.79 69.97 25.79 70.68C25.79 70.68 25.79 70.68 25.79 70.68Z" id="c2jvuD5fB"></path><path d="M25.79 70.68C24.25 70.68 23.39 70.68 23.22 70.68C23.22 70.68 23.22 70.68 23.22 70.68C23.22 64.34 23.22 60.82 23.22 60.12C23.22 60.12 23.22 60.12 23.22 60.12C24.76 60.12 25.62 60.12 25.79 60.12C25.79 60.12 25.79 60.12 25.79 60.12C25.79 66.45 25.79 69.97 25.79 70.68C25.79 70.68 25.79 70.68 25.79 70.68Z" id="d4aMFWlzba"></path><path d="M25.79 70.68C24.25 70.68 23.39 70.68 23.22 70.68C23.22 70.68 23.22 70.68 23.22 70.68C23.22 64.34 23.22 60.82 23.22 60.12C23.22 60.12 23.22 60.12 23.22 60.12C24.76 60.12 25.62 60.12 25.79 60.12C25.79 60.12 25.79 60.12 25.79 60.12C25.79 66.45 25.79 69.97 25.79 70.68C25.79 70.68 25.79 70.68 25.79 70.68Z" id="b3GQPQ1mku"></path><path d="M25.79 70.68C24.25 70.68 23.39 70.68 23.22 70.68C23.22 70.68 23.22 70.68 23.22 70.68C23.22 64.34 23.22 60.82 23.22 60.12C23.22 60.12 23.22 60.12 23.22 60.12C24.76 60.12 25.62 60.12 25.79 60.12C25.79 60.12 25.79 60.12 25.79 60.12C25.79 66.45 25.79 69.97 25.79 70.68C25.79 70.68 25.79 70.68 25.79 70.68Z" id="ezmw1cY32"></path><path d="M25.79 70.68C24.25 70.68 23.39 70.68 23.22 70.68C23.22 70.68 23.22 70.68 23.22 70.68C23.22 64.34 23.22 60.82 23.22 60.12C23.22 60.12 23.22 60.12 23.22 60.12C24.76 60.12 25.62 60.12 25.79 60.12C25.79 60.12 25.79 60.12 25.79 60.12C25.79 66.45 25.79 69.97 25.79 70.68C25.79 70.68 25.79 70.68 25.79 70.68Z" id="a7yCmnILQ"></path><path d="M25.79 70.68C24.25 70.68 23.39 70.68 23.22 70.68C23.22 70.68 23.22 70.68 23.22 70.68C23.22 64.34 23.22 60.82 23.22 60.12C23.22 60.12 23.22 60.12 23.22 60.12C24.76 60.12 25.62 60.12 25.79 60.12C25.79 60.12 25.79 60.12 25.79 60.12C25.79 66.45 25.79 69.97 25.79 70.68C25.79 70.68 25.79 70.68 25.79 70.68Z" id="dl97JdzI9"></path><path d="M42.34 70.68C40.79 70.68 39.94 70.68 39.77 70.68C39.77 70.68 39.77 70.68 39.77 70.68C39.77 64.34 39.77 60.82 39.77 60.12C39.77 60.12 39.77 60.12 39.77 60.12C41.31 60.12 42.16 60.12 42.34 60.12C42.34 60.12 42.34 60.12 42.34 60.12C42.34 66.45 42.34 69.97 42.34 70.68C42.34 70.68 42.34 70.68 42.34 70.68Z" id="bBLpMEXl"></path><path d="M42.34 70.68C40.79 70.68 39.94 70.68 39.77 70.68C39.77 70.68 39.77 70.68 39.77 70.68C39.77 64.34 39.77 60.82 39.77 60.12C39.77 60.12 39.77 60.12 39.77 60.12C41.31 60.12 42.16 60.12 42.34 60.12C42.34 60.12 42.34 60.12 42.34 60.12C42.34 66.45 42.34 69.97 42.34 70.68C42.34 70.68 42.34 70.68 42.34 70.68Z" id="a2zBskPyVD"></path><path d="M42.34 70.68C40.79 70.68 39.94 70.68 39.77 70.68C39.77 70.68 39.77 70.68 39.77 70.68C39.77 64.34 39.77 60.82 39.77 60.12C39.77 60.12 39.77 60.12 39.77 60.12C41.31 60.12 42.16 60.12 42.34 60.12C42.34 60.12 42.34 60.12 42.34 60.12C42.34 66.45 42.34 69.97 42.34 70.68C42.34 70.68 42.34 70.68 42.34 70.68Z" id="boFKyp4Qj"></path><path d="M42.34 70.68C40.79 70.68 39.94 70.68 39.77 70.68C39.77 70.68 39.77 70.68 39.77 70.68C39.77 64.34 39.77 60.82 39.77 60.12C39.77 60.12 39.77 60.12 39.77 60.12C41.31 60.12 42.16 60.12 42.34 60.12C42.34 60.12 42.34 60.12 42.34 60.12C42.34 66.45 42.34 69.97 42.34 70.68C42.34 70.68 42.34 70.68 42.34 70.68Z" id="h1TIBVPIWt"></path><path d="M42.34 70.68C40.79 70.68 39.94 70.68 39.77 70.68C39.77 70.68 39.77 70.68 39.77 70.68C39.77 64.34 39.77 60.82 39.77 60.12C39.77 60.12 39.77 60.12 39.77 60.12C41.31 60.12 42.16 60.12 42.34 60.12C42.34 60.12 42.34 60.12 42.34 60.12C42.34 66.45 42.34 69.97 42.34 70.68C42.34 70.68 42.34 70.68 42.34 70.68Z" id="eDvyu4uSq"></path><path d="M42.34 70.68C40.79 70.68 39.94 70.68 39.77 70.68C39.77 70.68 39.77 70.68 39.77 70.68C39.77 64.34 39.77 60.82 39.77 60.12C39.77 60.12 39.77 60.12 39.77 60.12C41.31 60.12 42.16 60.12 42.34 60.12C42.34 60.12 42.34 60.12 42.34 60.12C42.34 66.45 42.34 69.97 42.34 70.68C42.34 70.68 42.34 70.68 42.34 70.68Z" id="h100xHOpC"></path><path d="M42.34 70.68C40.79 70.68 39.94 70.68 39.77 70.68C39.77 70.68 39.77 70.68 39.77 70.68C39.77 64.34 39.77 60.82 39.77 60.12C39.77 60.12 39.77 60.12 39.77 60.12C41.31 60.12 42.16 60.12 42.34 60.12C42.34 60.12 42.34 60.12 42.34 60.12C42.34 66.45 42.34 69.97 42.34 70.68C42.34 70.68 42.34 70.68 42.34 70.68Z" id="cWGlfoycp"></path><path d="M42.34 70.68C40.79 70.68 39.94 70.68 39.77 70.68C39.77 70.68 39.77 70.68 39.77 70.68C39.77 64.34 39.77 60.82 39.77 60.12C39.77 60.12 39.77 60.12 39.77 60.12C41.31 60.12 42.16 60.12 42.34 60.12C42.34 60.12 42.34 60.12 42.34 60.12C42.34 66.45 42.34 69.97 42.34 70.68C42.34 70.68 42.34 70.68 42.34 70.68Z" id="b4tYFvRdYs"></path><path d="M56.7 70.68C55.16 70.68 54.31 70.68 54.13 70.68C54.13 70.68 54.13 70.68 54.13 70.68C54.13 64.34 54.13 60.82 54.13 60.12C54.13 60.12 54.13 60.12 54.13 60.12C55.68 60.12 56.53 60.12 56.7 60.12C56.7 60.12 56.7 60.12 56.7 60.12C56.7 66.45 56.7 69.97 56.7 70.68C56.7 70.68 56.7 70.68 56.7 70.68Z" id="c1SiDjVLLD"></path><path d="M56.7 70.68C55.16 70.68 54.31 70.68 54.13 70.68C54.13 70.68 54.13 70.68 54.13 70.68C54.13 64.34 54.13 60.82 54.13 60.12C54.13 60.12 54.13 60.12 54.13 60.12C55.68 60.12 56.53 60.12 56.7 60.12C56.7 60.12 56.7 60.12 56.7 60.12C56.7 66.45 56.7 69.97 56.7 70.68C56.7 70.68 56.7 70.68 56.7 70.68Z" id="i1z55QSQT7"></path><path d="M56.7 70.68C55.16 70.68 54.31 70.68 54.13 70.68C54.13 70.68 54.13 70.68 54.13 70.68C54.13 64.34 54.13 60.82 54.13 60.12C54.13 60.12 54.13 60.12 54.13 60.12C55.68 60.12 56.53 60.12 56.7 60.12C56.7 60.12 56.7 60.12 56.7 60.12C56.7 66.45 56.7 69.97 56.7 70.68C56.7 70.68 56.7 70.68 56.7 70.68Z" id="a2fwiQAjfB"></path><path d="M56.7 70.68C55.16 70.68 54.31 70.68 54.13 70.68C54.13 70.68 54.13 70.68 54.13 70.68C54.13 64.34 54.13 60.82 54.13 60.12C54.13 60.12 54.13 60.12 54.13 60.12C55.68 60.12 56.53 60.12 56.7 60.12C56.7 60.12 56.7 60.12 56.7 60.12C56.7 66.45 56.7 69.97 56.7 70.68C56.7 70.68 56.7 70.68 56.7 70.68Z" id="l27RthiiXJ"></path><path d="M56.7 70.68C55.16 70.68 54.31 70.68 54.13 70.68C54.13 70.68 54.13 70.68 54.13 70.68C54.13 64.34 54.13 60.82 54.13 60.12C54.13 60.12 54.13 60.12 54.13 60.12C55.68 60.12 56.53 60.12 56.7 60.12C56.7 60.12 56.7 60.12 56.7 60.12C56.7 66.45 56.7 69.97 56.7 70.68C56.7 70.68 56.7 70.68 56.7 70.68Z" id="b38OMhE5FR"></path><path d="M56.7 70.68C55.16 70.68 54.31 70.68 54.13 70.68C54.13 70.68 54.13 70.68 54.13 70.68C54.13 64.34 54.13 60.82 54.13 60.12C54.13 60.12 54.13 60.12 54.13 60.12C55.68 60.12 56.53 60.12 56.7 60.12C56.7 60.12 56.7 60.12 56.7 60.12C56.7 66.45 56.7 69.97 56.7 70.68C56.7 70.68 56.7 70.68 56.7 70.68Z" id="b6PXhgLfK"></path><path d="M56.7 70.68C55.16 70.68 54.31 70.68 54.13 70.68C54.13 70.68 54.13 70.68 54.13 70.68C54.13 64.34 54.13 60.82 54.13 60.12C54.13 60.12 54.13 60.12 54.13 60.12C55.68 60.12 56.53 60.12 56.7 60.12C56.7 60.12 56.7 60.12 56.7 60.12C56.7 66.45 56.7 69.97 56.7 70.68C56.7 70.68 56.7 70.68 56.7 70.68Z" id="hnRvKdqnF"></path><path d="M56.7 70.68C55.16 70.68 54.31 70.68 54.13 70.68C54.13 70.68 54.13 70.68 54.13 70.68C54.13 64.34 54.13 60.82 54.13 60.12C54.13 60.12 54.13 60.12 54.13 60.12C55.68 60.12 56.53 60.12 56.7 60.12C56.7 60.12 56.7 60.12 56.7 60.12C56.7 66.45 56.7 69.97 56.7 70.68C56.7 70.68 56.7 70.68 56.7 70.68Z" id="aThgh7B25"></path><path d="M33.72 70.68L38.13 60.12L35.44 60.12L32.82 66.57L30.21 60.12L27.51 60.12L31.93 70.68L33.72 70.68Z" id="d2s5yNdpWs"></path><path d="M33.72 70.68L38.13 60.12L35.44 60.12L32.82 66.57L30.21 60.12L27.51 60.12L31.93 70.68L33.72 70.68Z" id="g3RtxsaE8f"></path><path d="M33.72 70.68L38.13 60.12L35.44 60.12L32.82 66.57L30.21 60.12L27.51 60.12L31.93 70.68L33.72 70.68Z" id="bIWesYQw0"></path><path d="M33.72 70.68L38.13 60.12L35.44 60.12L32.82 66.57L30.21 60.12L27.51 60.12L31.93 70.68L33.72 70.68Z" id="cgxOvqCPZ"></path><path d="M33.72 70.68L38.13 60.12L35.44 60.12L32.82 66.57L30.21 60.12L27.51 60.12L31.93 70.68L33.72 70.68Z" id="f2WyM4QMTF"></path><path d="M33.72 70.68L38.13 60.12L35.44 60.12L32.82 66.57L30.21 60.12L27.51 60.12L31.93 70.68L33.72 70.68Z" id="c2VLKuk0L"></path><path d="M33.72 70.68L38.13 60.12L35.44 60.12L32.82 66.57L30.21 60.12L27.51 60.12L31.93 70.68L33.72 70.68Z" id="bOJm7XefM"></path><path d="M33.72 70.68L38.13 60.12L35.44 60.12L32.82 66.57L30.21 60.12L27.51 60.12L31.93 70.68L33.72 70.68Z" id="a2edxsYLH7"></path><path d="M48.48 59.89C46.48 59.89 44.76 61.19 44.76 63.22C44.76 66.62 49.42 66.03 49.42 67.6C49.42 68.1 48.87 68.49 48.18 68.49C46.49 68.49 45.57 67.43 45.57 67.43C45.45 67.64 44.44 69.27 44.32 69.47C44.32 69.47 45.98 70.9 48.19 70.9C50.23 70.9 52.01 69.69 52.01 67.66C52.01 63.96 47.36 64.52 47.36 63.16C47.36 62.73 47.77 62.31 48.67 62.31C49.59 62.31 50.13 62.89 50.5 63.03C50.62 62.83 51.6 61.18 51.72 60.97C51.07 60.76 50.4 59.89 48.48 59.89Z" id="bVRdP6CC"></path><path d="M48.48 59.89C46.48 59.89 44.76 61.19 44.76 63.22C44.76 66.62 49.42 66.03 49.42 67.6C49.42 68.1 48.87 68.49 48.18 68.49C46.49 68.49 45.57 67.43 45.57 67.43C45.45 67.64 44.44 69.27 44.32 69.47C44.32 69.47 45.98 70.9 48.19 70.9C50.23 70.9 52.01 69.69 52.01 67.66C52.01 63.96 47.36 64.52 47.36 63.16C47.36 62.73 47.77 62.31 48.67 62.31C49.59 62.31 50.13 62.89 50.5 63.03C50.62 62.83 51.6 61.18 51.72 60.97C51.07 60.76 50.4 59.89 48.48 59.89Z" id="e1IvHEgQU9"></path><path d="M48.48 59.89C46.48 59.89 44.76 61.19 44.76 63.22C44.76 66.62 49.42 66.03 49.42 67.6C49.42 68.1 48.87 68.49 48.18 68.49C46.49 68.49 45.57 67.43 45.57 67.43C45.45 67.64 44.44 69.27 44.32 69.47C44.32 69.47 45.98 70.9 48.19 70.9C50.23 70.9 52.01 69.69 52.01 67.66C52.01 63.96 47.36 64.52 47.36 63.16C47.36 62.73 47.77 62.31 48.67 62.31C49.59 62.31 50.13 62.89 50.5 63.03C50.62 62.83 51.6 61.18 51.72 60.97C51.07 60.76 50.4 59.89 48.48 59.89Z" id="a2m1Sg09a"></path><path d="M48.48 59.89C46.48 59.89 44.76 61.19 44.76 63.22C44.76 66.62 49.42 66.03 49.42 67.6C49.42 68.1 48.87 68.49 48.18 68.49C46.49 68.49 45.57 67.43 45.57 67.43C45.45 67.64 44.44 69.27 44.32 69.47C44.32 69.47 45.98 70.9 48.19 70.9C50.23 70.9 52.01 69.69 52.01 67.66C52.01 63.96 47.36 64.52 47.36 63.16C47.36 62.73 47.77 62.31 48.67 62.31C49.59 62.31 50.13 62.89 50.5 63.03C50.62 62.83 51.6 61.18 51.72 60.97C51.07 60.76 50.4 59.89 48.48 59.89Z" id="b13Yhkh2DY"></path><path d="M48.48 59.89C46.48 59.89 44.76 61.19 44.76 63.22C44.76 66.62 49.42 66.03 49.42 67.6C49.42 68.1 48.87 68.49 48.18 68.49C46.49 68.49 45.57 67.43 45.57 67.43C45.45 67.64 44.44 69.27 44.32 69.47C44.32 69.47 45.98 70.9 48.19 70.9C50.23 70.9 52.01 69.69 52.01 67.66C52.01 63.96 47.36 64.52 47.36 63.16C47.36 62.73 47.77 62.31 48.67 62.31C49.59 62.31 50.13 62.89 50.5 63.03C50.62 62.83 51.6 61.18 51.72 60.97C51.07 60.76 50.4 59.89 48.48 59.89Z" id="a5ZcGnyjp"></path><path d="M48.48 59.89C46.48 59.89 44.76 61.19 44.76 63.22C44.76 66.62 49.42 66.03 49.42 67.6C49.42 68.1 48.87 68.49 48.18 68.49C46.49 68.49 45.57 67.43 45.57 67.43C45.45 67.64 44.44 69.27 44.32 69.47C44.32 69.47 45.98 70.9 48.19 70.9C50.23 70.9 52.01 69.69 52.01 67.66C52.01 63.96 47.36 64.52 47.36 63.16C47.36 62.73 47.77 62.31 48.67 62.31C49.59 62.31 50.13 62.89 50.5 63.03C50.62 62.83 51.6 61.18 51.72 60.97C51.07 60.76 50.4 59.89 48.48 59.89Z" id="c1mTOYct6U"></path><path d="M48.48 59.89C46.48 59.89 44.76 61.19 44.76 63.22C44.76 66.62 49.42 66.03 49.42 67.6C49.42 68.1 48.87 68.49 48.18 68.49C46.49 68.49 45.57 67.43 45.57 67.43C45.45 67.64 44.44 69.27 44.32 69.47C44.32 69.47 45.98 70.9 48.19 70.9C50.23 70.9 52.01 69.69 52.01 67.66C52.01 63.96 47.36 64.52 47.36 63.16C47.36 62.73 47.77 62.31 48.67 62.31C49.59 62.31 50.13 62.89 50.5 63.03C50.62 62.83 51.6 61.18 51.72 60.97C51.07 60.76 50.4 59.89 48.48 59.89Z" id="fpYJnZsG"></path><path d="M48.48 59.89C46.48 59.89 44.76 61.19 44.76 63.22C44.76 66.62 49.42 66.03 49.42 67.6C49.42 68.1 48.87 68.49 48.18 68.49C46.49 68.49 45.57 67.43 45.57 67.43C45.45 67.64 44.44 69.27 44.32 69.47C44.32 69.47 45.98 70.9 48.19 70.9C50.23 70.9 52.01 69.69 52.01 67.66C52.01 63.96 47.36 64.52 47.36 63.16C47.36 62.73 47.77 62.31 48.67 62.31C49.59 62.31 50.13 62.89 50.5 63.03C50.62 62.83 51.6 61.18 51.72 60.97C51.07 60.76 50.4 59.89 48.48 59.89Z" id="aKXXJD4cV"></path><path d="M64.91 60.07L65.52 60.28L66.11 60.57L66.65 60.95L67.16 61.39L67.6 61.9L67.99 62.49L68.31 63.14L68.54 63.84L68.69 64.6L68.74 65.41L68.69 66.19L68.55 66.92L68.34 67.6L68.04 68.25L67.67 68.83L67.24 69.35L66.75 69.81L66.21 70.19L65.62 70.49L64.99 70.72L64.32 70.86L63.62 70.91L62.96 70.86L62.31 70.73L61.69 70.51L61.1 70.21L60.55 69.84L60.05 69.38L59.6 68.87L59.22 68.29L58.91 67.65L58.68 66.96L58.53 66.21L58.48 65.41L58.52 64.76L58.63 64.11L58.82 63.46L59.07 62.83L59.4 62.24L59.8 61.68L60.27 61.19L60.81 60.75L61.41 60.39L62.08 60.12L62.82 59.95L63.63 59.89L64.27 59.94L64.91 60.07ZM62.27 62.96L61.76 63.44L61.39 64.03L61.16 64.71L61.08 65.42L61.18 66.27L61.47 66.98L61.9 67.55L62.43 67.96L63.03 68.2L63.65 68.29L64.32 68.19L64.92 67.9L65.42 67.46L65.81 66.88L66.06 66.19L66.15 65.4L66.06 64.61L65.81 63.92L65.41 63.34L64.9 62.91L64.29 62.63L63.61 62.53L62.88 62.65L62.27 62.96Z" id="e1lPH059Wo"></path><path d="M64.91 60.07L65.52 60.28L66.11 60.57L66.65 60.95L67.16 61.39L67.6 61.9L67.99 62.49L68.31 63.14L68.54 63.84L68.69 64.6L68.74 65.41L68.69 66.19L68.55 66.92L68.34 67.6L68.04 68.25L67.67 68.83L67.24 69.35L66.75 69.81L66.21 70.19L65.62 70.49L64.99 70.72L64.32 70.86L63.62 70.91L62.96 70.86L62.31 70.73L61.69 70.51L61.1 70.21L60.55 69.84L60.05 69.38L59.6 68.87L59.22 68.29L58.91 67.65L58.68 66.96L58.53 66.21L58.48 65.41L58.52 64.76L58.63 64.11L58.82 63.46L59.07 62.83L59.4 62.24L59.8 61.68L60.27 61.19L60.81 60.75L61.41 60.39L62.08 60.12L62.82 59.95L63.63 59.89L64.27 59.94L64.91 60.07ZM62.27 62.96L61.76 63.44L61.39 64.03L61.16 64.71L61.08 65.42L61.18 66.27L61.47 66.98L61.9 67.55L62.43 67.96L63.03 68.2L63.65 68.29L64.32 68.19L64.92 67.9L65.42 67.46L65.81 66.88L66.06 66.19L66.15 65.4L66.06 64.61L65.81 63.92L65.41 63.34L64.9 62.91L64.29 62.63L63.61 62.53L62.88 62.65L62.27 62.96Z" id="b15qy4fM9h"></path><path d="M64.91 60.07L65.52 60.28L66.11 60.57L66.65 60.95L67.16 61.39L67.6 61.9L67.99 62.49L68.31 63.14L68.54 63.84L68.69 64.6L68.74 65.41L68.69 66.19L68.55 66.92L68.34 67.6L68.04 68.25L67.67 68.83L67.24 69.35L66.75 69.81L66.21 70.19L65.62 70.49L64.99 70.72L64.32 70.86L63.62 70.91L62.96 70.86L62.31 70.73L61.69 70.51L61.1 70.21L60.55 69.84L60.05 69.38L59.6 68.87L59.22 68.29L58.91 67.65L58.68 66.96L58.53 66.21L58.48 65.41L58.52 64.76L58.63 64.11L58.82 63.46L59.07 62.83L59.4 62.24L59.8 61.68L60.27 61.19L60.81 60.75L61.41 60.39L62.08 60.12L62.82 59.95L63.63 59.89L64.27 59.94L64.91 60.07ZM62.27 62.96L61.76 63.44L61.39 64.03L61.16 64.71L61.08 65.42L61.18 66.27L61.47 66.98L61.9 67.55L62.43 67.96L63.03 68.2L63.65 68.29L64.32 68.19L64.92 67.9L65.42 67.46L65.81 66.88L66.06 66.19L66.15 65.4L66.06 64.61L65.81 63.92L65.41 63.34L64.9 62.91L64.29 62.63L63.61 62.53L62.88 62.65L62.27 62.96Z" id="a2EpzofQs"></path><path d="M64.91 60.07L65.52 60.28L66.11 60.57L66.65 60.95L67.16 61.39L67.6 61.9L67.99 62.49L68.31 63.14L68.54 63.84L68.69 64.6L68.74 65.41L68.69 66.19L68.55 66.92L68.34 67.6L68.04 68.25L67.67 68.83L67.24 69.35L66.75 69.81L66.21 70.19L65.62 70.49L64.99 70.72L64.32 70.86L63.62 70.91L62.96 70.86L62.31 70.73L61.69 70.51L61.1 70.21L60.55 69.84L60.05 69.38L59.6 68.87L59.22 68.29L58.91 67.65L58.68 66.96L58.53 66.21L58.48 65.41L58.52 64.76L58.63 64.11L58.82 63.46L59.07 62.83L59.4 62.24L59.8 61.68L60.27 61.19L60.81 60.75L61.41 60.39L62.08 60.12L62.82 59.95L63.63 59.89L64.27 59.94L64.91 60.07ZM62.27 62.96L61.76 63.44L61.39 64.03L61.16 64.71L61.08 65.42L61.18 66.27L61.47 66.98L61.9 67.55L62.43 67.96L63.03 68.2L63.65 68.29L64.32 68.19L64.92 67.9L65.42 67.46L65.81 66.88L66.06 66.19L66.15 65.4L66.06 64.61L65.81 63.92L65.41 63.34L64.9 62.91L64.29 62.63L63.61 62.53L62.88 62.65L62.27 62.96Z" id="eaQfhetJa"></path><path d="M64.91 60.07L65.52 60.28L66.11 60.57L66.65 60.95L67.16 61.39L67.6 61.9L67.99 62.49L68.31 63.14L68.54 63.84L68.69 64.6L68.74 65.41L68.69 66.19L68.55 66.92L68.34 67.6L68.04 68.25L67.67 68.83L67.24 69.35L66.75 69.81L66.21 70.19L65.62 70.49L64.99 70.72L64.32 70.86L63.62 70.91L62.96 70.86L62.31 70.73L61.69 70.51L61.1 70.21L60.55 69.84L60.05 69.38L59.6 68.87L59.22 68.29L58.91 67.65L58.68 66.96L58.53 66.21L58.48 65.41L58.52 64.76L58.63 64.11L58.82 63.46L59.07 62.83L59.4 62.24L59.8 61.68L60.27 61.19L60.81 60.75L61.41 60.39L62.08 60.12L62.82 59.95L63.63 59.89L64.27 59.94L64.91 60.07ZM62.27 62.96L61.76 63.44L61.39 64.03L61.16 64.71L61.08 65.42L61.18 66.27L61.47 66.98L61.9 67.55L62.43 67.96L63.03 68.2L63.65 68.29L64.32 68.19L64.92 67.9L65.42 67.46L65.81 66.88L66.06 66.19L66.15 65.4L66.06 64.61L65.81 63.92L65.41 63.34L64.9 62.91L64.29 62.63L63.61 62.53L62.88 62.65L62.27 62.96Z" id="adcXNoUCX"></path><path d="M64.91 60.07L65.52 60.28L66.11 60.57L66.65 60.95L67.16 61.39L67.6 61.9L67.99 62.49L68.31 63.14L68.54 63.84L68.69 64.6L68.74 65.41L68.69 66.19L68.55 66.92L68.34 67.6L68.04 68.25L67.67 68.83L67.24 69.35L66.75 69.81L66.21 70.19L65.62 70.49L64.99 70.72L64.32 70.86L63.62 70.91L62.96 70.86L62.31 70.73L61.69 70.51L61.1 70.21L60.55 69.84L60.05 69.38L59.6 68.87L59.22 68.29L58.91 67.65L58.68 66.96L58.53 66.21L58.48 65.41L58.52 64.76L58.63 64.11L58.82 63.46L59.07 62.83L59.4 62.24L59.8 61.68L60.27 61.19L60.81 60.75L61.41 60.39L62.08 60.12L62.82 59.95L63.63 59.89L64.27 59.94L64.91 60.07ZM62.27 62.96L61.76 63.44L61.39 64.03L61.16 64.71L61.08 65.42L61.18 66.27L61.47 66.98L61.9 67.55L62.43 67.96L63.03 68.2L63.65 68.29L64.32 68.19L64.92 67.9L65.42 67.46L65.81 66.88L66.06 66.19L66.15 65.4L66.06 64.61L65.81 63.92L65.41 63.34L64.9 62.91L64.29 62.63L63.61 62.53L62.88 62.65L62.27 62.96Z" id="b5HDIC7Qq"></path><path d="M64.91 60.07L65.52 60.28L66.11 60.57L66.65 60.95L67.16 61.39L67.6 61.9L67.99 62.49L68.31 63.14L68.54 63.84L68.69 64.6L68.74 65.41L68.69 66.19L68.55 66.92L68.34 67.6L68.04 68.25L67.67 68.83L67.24 69.35L66.75 69.81L66.21 70.19L65.62 70.49L64.99 70.72L64.32 70.86L63.62 70.91L62.96 70.86L62.31 70.73L61.69 70.51L61.1 70.21L60.55 69.84L60.05 69.38L59.6 68.87L59.22 68.29L58.91 67.65L58.68 66.96L58.53 66.21L58.48 65.41L58.52 64.76L58.63 64.11L58.82 63.46L59.07 62.83L59.4 62.24L59.8 61.68L60.27 61.19L60.81 60.75L61.41 60.39L62.08 60.12L62.82 59.95L63.63 59.89L64.27 59.94L64.91 60.07ZM62.27 62.96L61.76 63.44L61.39 64.03L61.16 64.71L61.08 65.42L61.18 66.27L61.47 66.98L61.9 67.55L62.43 67.96L63.03 68.2L63.65 68.29L64.32 68.19L64.92 67.9L65.42 67.46L65.81 66.88L66.06 66.19L66.15 65.4L66.06 64.61L65.81 63.92L65.41 63.34L64.9 62.91L64.29 62.63L63.61 62.53L62.88 62.65L62.27 62.96Z" id="aX0TjtaQ"></path><path d="M64.91 60.07L65.52 60.28L66.11 60.57L66.65 60.95L67.16 61.39L67.6 61.9L67.99 62.49L68.31 63.14L68.54 63.84L68.69 64.6L68.74 65.41L68.69 66.19L68.55 66.92L68.34 67.6L68.04 68.25L67.67 68.83L67.24 69.35L66.75 69.81L66.21 70.19L65.62 70.49L64.99 70.72L64.32 70.86L63.62 70.91L62.96 70.86L62.31 70.73L61.69 70.51L61.1 70.21L60.55 69.84L60.05 69.38L59.6 68.87L59.22 68.29L58.91 67.65L58.68 66.96L58.53 66.21L58.48 65.41L58.52 64.76L58.63 64.11L58.82 63.46L59.07 62.83L59.4 62.24L59.8 61.68L60.27 61.19L60.81 60.75L61.41 60.39L62.08 60.12L62.82 59.95L63.63 59.89L64.27 59.94L64.91 60.07ZM62.27 62.96L61.76 63.44L61.39 64.03L61.16 64.71L61.08 65.42L61.18 66.27L61.47 66.98L61.9 67.55L62.43 67.96L63.03 68.2L63.65 68.29L64.32 68.19L64.92 67.9L65.42 67.46L65.81 66.88L66.06 66.19L66.15 65.4L66.06 64.61L65.81 63.92L65.41 63.34L64.9 62.91L64.29 62.63L63.61 62.53L62.88 62.65L62.27 62.96Z" id="a2aXUI0hmo"></path><path d="M37.81 54.23C35.67 50.33 34.71 45.9 34.86 32.43C22.28 32.43 20.44 30.23 16.84 29.68C16.84 40.76 25.46 52.8 37.81 54.23Z" id="c1wBneRtDu"></path><path d="M37.81 54.23C35.67 50.33 34.71 45.9 34.86 32.43C22.28 32.43 20.44 30.23 16.84 29.68C16.84 40.76 25.46 52.8 37.81 54.23Z" id="b1vzxuvMPQ"></path><path d="M37.81 54.23C35.67 50.33 34.71 45.9 34.86 32.43C22.28 32.43 20.44 30.23 16.84 29.68C16.84 40.76 25.46 52.8 37.81 54.23Z" id="e3vg0QcLhu"></path><path d="M37.81 54.23C35.67 50.33 34.71 45.9 34.86 32.43C22.28 32.43 20.44 30.23 16.84 29.68C16.84 40.76 25.46 52.8 37.81 54.23Z" id="a66H71lIa"></path><path d="M37.81 54.23C35.67 50.33 34.71 45.9 34.86 32.43C22.28 32.43 20.44 30.23 16.84 29.68C16.84 40.76 25.46 52.8 37.81 54.23Z" id="b2f6PHNzzP"></path><path d="M37.81 54.23C35.67 50.33 34.71 45.9 34.86 32.43C22.28 32.43 20.44 30.23 16.84 29.68C16.84 40.76 25.46 52.8 37.81 54.23Z" id="e1eqNIVU5T"></path><path d="M37.81 54.23C35.67 50.33 34.71 45.9 34.86 32.43C22.28 32.43 20.44 30.23 16.84 29.68C16.84 40.76 25.46 52.8 37.81 54.23Z" id="coZXmTP43"></path><path d="M37.81 54.23C35.67 50.33 34.71 45.9 34.86 32.43C22.28 32.43 20.44 30.23 16.84 29.68C16.84 40.76 25.46 52.8 37.81 54.23Z" id="a89CaKzEvX"></path><path d="M22.66 29.79C22.66 19.91 18.64 14.83 16.84 9.59C16.84 10.84 16.84 17.08 16.84 28.31C18.46 29.18 20.4 29.67 22.66 29.79Z" id="aLC3MSxAS"></path><path d="M22.66 29.79C22.66 19.91 18.64 14.83 16.84 9.59C16.84 10.84 16.84 17.08 16.84 28.31C18.46 29.18 20.4 29.67 22.66 29.79Z" id="b8QASXKkP"></path><path d="M22.66 29.79C22.66 19.91 18.64 14.83 16.84 9.59C16.84 10.84 16.84 17.08 16.84 28.31C18.46 29.18 20.4 29.67 22.66 29.79Z" id="cbZRDkxsG"></path><path d="M22.66 29.79C22.66 19.91 18.64 14.83 16.84 9.59C16.84 10.84 16.84 17.08 16.84 28.31C18.46 29.18 20.4 29.67 22.66 29.79Z" id="dprsBM1UD"></path><path d="M22.66 29.79C22.66 19.91 18.64 14.83 16.84 9.59C16.84 10.84 16.84 17.08 16.84 28.31C18.46 29.18 20.4 29.67 22.66 29.79Z" id="a334uDW4q"></path><path d="M22.66 29.79C22.66 19.91 18.64 14.83 16.84 9.59C16.84 10.84 16.84 17.08 16.84 28.31C18.46 29.18 20.4 29.67 22.66 29.79Z" id="aRyFXC6YY"></path><path d="M22.66 29.79C22.66 19.91 18.64 14.83 16.84 9.59C16.84 10.84 16.84 17.08 16.84 28.31C18.46 29.18 20.4 29.67 22.66 29.79Z" id="b2wSL0lWP"></path><path d="M22.66 29.79C22.66 19.91 18.64 14.83 16.84 9.59C16.84 10.84 16.84 17.08 16.84 28.31C18.46 29.18 20.4 29.67 22.66 29.79Z" id="cj3L0PQck"></path><path d="M18.9 4C17.23 4 16.83 4.43 16.83 5.33C16.83 6.78 17.61 8.48 18.36 10.1C21.65 16.7 23.93 22.66 23.85 29.86C24.31 29.89 25.58 30 26.13 30C29.3 30 33.84 28.66 34.85 27.94C34.85 26.44 34.85 14.46 34.85 12.97C31.71 8.72 24.74 4 18.9 4Z" id="b9vzNOiNm"></path><path d="M18.9 4C17.23 4 16.83 4.43 16.83 5.33C16.83 6.78 17.61 8.48 18.36 10.1C21.65 16.7 23.93 22.66 23.85 29.86C24.31 29.89 25.58 30 26.13 30C29.3 30 33.84 28.66 34.85 27.94C34.85 26.44 34.85 14.46 34.85 12.97C31.71 8.72 24.74 4 18.9 4Z" id="b8V2TvBGr"></path><path d="M18.9 4C17.23 4 16.83 4.43 16.83 5.33C16.83 6.78 17.61 8.48 18.36 10.1C21.65 16.7 23.93 22.66 23.85 29.86C24.31 29.89 25.58 30 26.13 30C29.3 30 33.84 28.66 34.85 27.94C34.85 26.44 34.85 14.46 34.85 12.97C31.71 8.72 24.74 4 18.9 4Z" id="bTkHkx8Yi"></path><path d="M18.9 4C17.23 4 16.83 4.43 16.83 5.33C16.83 6.78 17.61 8.48 18.36 10.1C21.65 16.7 23.93 22.66 23.85 29.86C24.31 29.89 25.58 30 26.13 30C29.3 30 33.84 28.66 34.85 27.94C34.85 26.44 34.85 14.46 34.85 12.97C31.71 8.72 24.74 4 18.9 4Z" id="c61NQRNUEq"></path><path d="M18.9 4C17.23 4 16.83 4.43 16.83 5.33C16.83 6.78 17.61 8.48 18.36 10.1C21.65 16.7 23.93 22.66 23.85 29.86C24.31 29.89 25.58 30 26.13 30C29.3 30 33.84 28.66 34.85 27.94C34.85 26.44 34.85 14.46 34.85 12.97C31.71 8.72 24.74 4 18.9 4Z" id="berARPYoC"></path><path d="M18.9 4C17.23 4 16.83 4.43 16.83 5.33C16.83 6.78 17.61 8.48 18.36 10.1C21.65 16.7 23.93 22.66 23.85 29.86C24.31 29.89 25.58 30 26.13 30C29.3 30 33.84 28.66 34.85 27.94C34.85 26.44 34.85 14.46 34.85 12.97C31.71 8.72 24.74 4 18.9 4Z" id="b2KXJ0SEBZ"></path><path d="M18.9 4C17.23 4 16.83 4.43 16.83 5.33C16.83 6.78 17.61 8.48 18.36 10.1C21.65 16.7 23.93 22.66 23.85 29.86C24.31 29.89 25.58 30 26.13 30C29.3 30 33.84 28.66 34.85 27.94C34.85 26.44 34.85 14.46 34.85 12.97C31.71 8.72 24.74 4 18.9 4Z" id="aAp7FTSAp"></path><path d="M18.9 4C17.23 4 16.83 4.43 16.83 5.33C16.83 6.78 17.61 8.48 18.36 10.1C21.65 16.7 23.93 22.66 23.85 29.86C24.31 29.89 25.58 30 26.13 30C29.3 30 33.84 28.66 34.85 27.94C34.85 26.44 34.85 14.46 34.85 12.97C31.71 8.72 24.74 4 18.9 4Z" id="fuR8AkcWd"></path><path d="M62.99 28.15C62.99 23.16 62.99 5.69 62.99 3.2C62.2 2.17 58.68 0 36.1 0C36.1 3.09 36.1 27.81 36.1 30.9C57.64 31 61.13 29.13 62.99 28.15Z" id="c27h2cN5l"></path><path d="M62.99 28.15C62.99 23.16 62.99 5.69 62.99 3.2C62.2 2.17 58.68 0 36.1 0C36.1 3.09 36.1 27.81 36.1 30.9C57.64 31 61.13 29.13 62.99 28.15Z" id="a2Hg1FWjaK"></path><path d="M62.99 28.15C62.99 23.16 62.99 5.69 62.99 3.2C62.2 2.17 58.68 0 36.1 0C36.1 3.09 36.1 27.81 36.1 30.9C57.64 31 61.13 29.13 62.99 28.15Z" id="dsfxzwq4g"></path><path d="M62.99 28.15C62.99 23.16 62.99 5.69 62.99 3.2C62.2 2.17 58.68 0 36.1 0C36.1 3.09 36.1 27.81 36.1 30.9C57.64 31 61.13 29.13 62.99 28.15Z" id="asMWOJ9x3"></path><path d="M62.99 28.15C62.99 23.16 62.99 5.69 62.99 3.2C62.2 2.17 58.68 0 36.1 0C36.1 3.09 36.1 27.81 36.1 30.9C57.64 31 61.13 29.13 62.99 28.15Z" id="i2RxZAjHv5"></path><path d="M62.99 28.15C62.99 23.16 62.99 5.69 62.99 3.2C62.2 2.17 58.68 0 36.1 0C36.1 3.09 36.1 27.81 36.1 30.9C57.64 31 61.13 29.13 62.99 28.15Z" id="auYJezfMp"></path><path d="M62.99 28.15C62.99 23.16 62.99 5.69 62.99 3.2C62.2 2.17 58.68 0 36.1 0C36.1 3.09 36.1 27.81 36.1 30.9C57.64 31 61.13 29.13 62.99 28.15Z" id="b46bQBR1Pa"></path><path d="M62.99 28.15C62.99 23.16 62.99 5.69 62.99 3.2C62.2 2.17 58.68 0 36.1 0C36.1 3.09 36.1 27.81 36.1 30.9C57.64 31 61.13 29.13 62.99 28.15Z" id="b1WP8tgZgb"></path><path d="M36.1 32.41C36.1 40.92 36.24 49.7 39.25 54.33C60.28 54.33 62.99 33.47 62.99 29.67C60.86 30.9 53.27 32.57 36.1 32.41Z" id="eGIqaf9Ss"></path><path d="M36.1 32.41C36.1 40.92 36.24 49.7 39.25 54.33C60.28 54.33 62.99 33.47 62.99 29.67C60.86 30.9 53.27 32.57 36.1 32.41Z" id="c4smIiBUZ"></path><path d="M36.1 32.41C36.1 40.92 36.24 49.7 39.25 54.33C60.28 54.33 62.99 33.47 62.99 29.67C60.86 30.9 53.27 32.57 36.1 32.41Z" id="b28iun1NnN"></path><path d="M36.1 32.41C36.1 40.92 36.24 49.7 39.25 54.33C60.28 54.33 62.99 33.47 62.99 29.67C60.86 30.9 53.27 32.57 36.1 32.41Z" id="f1Swlh0YsO"></path><path d="M36.1 32.41C36.1 40.92 36.24 49.7 39.25 54.33C60.28 54.33 62.99 33.47 62.99 29.67C60.86 30.9 53.27 32.57 36.1 32.41Z" id="c5BWuA2NmU"></path><path d="M36.1 32.41C36.1 40.92 36.24 49.7 39.25 54.33C60.28 54.33 62.99 33.47 62.99 29.67C60.86 30.9 53.27 32.57 36.1 32.41Z" id="g1FGrlBm3Y"></path><path d="M36.1 32.41C36.1 40.92 36.24 49.7 39.25 54.33C60.28 54.33 62.99 33.47 62.99 29.67C60.86 30.9 53.27 32.57 36.1 32.41Z" id="h1rQAjUnPB"></path><path d="M36.1 32.41C36.1 40.92 36.24 49.7 39.25 54.33C60.28 54.33 62.99 33.47 62.99 29.67C60.86 30.9 53.27 32.57 36.1 32.41Z" id="f1uaTtX2R9"></path></defs><g><g><g><use xlink:href="#g1uZ0FgQji" opacity="1" fill="#ffffff" fill-opacity="1"></use><g><use xlink:href="#g1uZ0FgQji" opacity="1" fill-opacity="0" stroke="#000000" stroke-width="1" stroke-opacity="0"></use></g></g><g><use xlink:href="#a8jCzq2nl" opacity="1" fill="#ffffff" fill-opacity="1"></use><g><use xlink:href="#a8jCzq2nl" opacity="1" fill-opacity="0" stroke="#000000" stroke-width="1" stroke-opacity="0"></use></g></g><g><use xlink:href="#avTlfGCt8" opacity="1" fill="#ffffff" fill-opacity="1"></use><g><use xlink:href="#avTlfGCt8" opacity="1" fill-opacity="0" stroke="#000000" stroke-width="1" stroke-opacity="0"></use></g></g><g><use xlink:href="#b3r2EAUd0e" opacity="1" fill="#ffffff" fill-opacity="1"></use><g><use xlink:href="#b3r2EAUd0e" opacity="1" fill-opacity="0" stroke="#000000" stroke-width="1" stroke-opacity="0"></use></g></g><g><use xlink:href="#b1GA29DUhi" opacity="1" fill="#ffffff" fill-opacity="1"></use><g><use xlink:href="#b1GA29DUhi" opacity="1" fill-opacity="0" stroke="#000000" stroke-width="1" stroke-opacity="0"></use></g></g><g><use xlink:href="#aiDIviAsC" opacity="1" fill="#ffffff" fill-opacity="1"></use><g><use xlink:href="#aiDIviAsC" opacity="1" fill-opacity="0" stroke="#000000" stroke-width="1" stroke-opacity="0"></use></g></g><g><use xlink:href="#c6M819tD8B" opacity="1" fill="#ffffff" fill-opacity="1"></use><g><use xlink:href="#c6M819tD8B" opacity="1" fill-opacity="0" stroke="#000000" stroke-width="1" stroke-opacity="0"></use></g></g><g><use xlink:href="#bdWliO9l1" opacity="1" fill="#ffffff" fill-opacity="1"></use><g><use xlink:href="#bdWliO9l1" opacity="1" fill-opacity="0" stroke="#000000" stroke-width="1" stroke-opacity="0"></use></g></g><g><use xlink:href="#bFvbjDDq" opacity="1" fill="#ffffff" fill-opacity="1"></use><g><use xlink:href="#bFvbjDDq" opacity="1" fill-opacity="0" stroke="#000000" stroke-width="1" stroke-opacity="0"></use></g></g><g><use xlink:href="#c6RMHJ53Qq" opacity="1" fill="#ffffff" fill-opacity="1"></use><g><use xlink:href="#c6RMHJ53Qq" opacity="1" fill-opacity="0" stroke="#000000" stroke-width="1" stroke-opacity="0"></use></g></g><g><use xlink:href="#ajyTMxVyZ" opacity="1" fill="#ffffff" fill-opacity="1"></use><g><use xlink:href="#ajyTMxVyZ" opacity="1" fill-opacity="0" stroke="#000000" stroke-width="1" stroke-opacity="0"></use></g></g><g><use xlink:href="#a2Q7vOmNl" opacity="1" fill="#ffffff" fill-opacity="1"></use><g><use xlink:href="#a2Q7vOmNl" opacity="1" fill-opacity="0" stroke="#000000" stroke-width="1" stroke-opacity="0"></use></g></g><g><use xlink:href="#bt2OmoTRW" opacity="1" fill="#ffffff" fill-opacity="1"></use><g><use xlink:href="#bt2OmoTRW" opacity="1" fill-opacity="0" stroke="#000000" stroke-width="1" stroke-opacity="0"></use></g></g><g><use xlink:href="#bbfQPVBdJ" opacity="1" fill="#ffffff" fill-opacity="1"></use><g><use xlink:href="#bbfQPVBdJ" opacity="1" fill-opacity="0" stroke="#000000" stroke-width="1" stroke-opacity="0"></use></g></g><g><use xlink:href="#b5lQNFC454" opacity="1" fill="#ffffff" fill-opacity="1"></use><g><use xlink:href="#b5lQNFC454" opacity="1" fill-opacity="0" stroke="#000000" stroke-width="1" stroke-opacity="0"></use></g></g><g><use xlink:href="#a3fjiKc63W" opacity="1" fill="#ffffff" fill-opacity="1"></use><g><use xlink:href="#a3fjiKc63W" opacity="1" fill-opacity="0" stroke="#000000" stroke-width="1" stroke-opacity="0"></use></g></g><g><use xlink:href="#e2WFGlvIuR" opacity="1" fill="#ffffff" fill-opacity="1"></use><g><use xlink:href="#e2WFGlvIuR" opacity="1" fill-opacity="0" stroke="#000000" stroke-width="1" stroke-opacity="0"></use></g></g><g><use xlink:href="#b1Zd72E616" opacity="1" fill="#ffffff" fill-opacity="1"></use><g><use xlink:href="#b1Zd72E616" opacity="1" fill-opacity="0" stroke="#000000" stroke-width="1" stroke-opacity="0"></use></g></g><g><use xlink:href="#b5I0VBiLt" opacity="1" fill="#ffffff" fill-opacity="1"></use><g><use xlink:href="#b5I0VBiLt" opacity="1" fill-opacity="0" stroke="#000000" stroke-width="1" stroke-opacity="0"></use></g></g><g><use xlink:href="#aPcZUN98C" opacity="1" fill="#ffffff" fill-opacity="1"></use><g><use xlink:href="#aPcZUN98C" opacity="1" fill-opacity="0" stroke="#000000" stroke-width="1" stroke-opacity="0"></use></g></g><g><use xlink:href="#dae3G3Z7P" opacity="1" fill="#ffffff" fill-opacity="1"></use><g><use xlink:href="#dae3G3Z7P" opacity="1" fill-opacity="0" stroke="#000000" stroke-width="1" stroke-opacity="0"></use></g></g><g><use xlink:href="#a5LEktokI" opacity="1" fill="#ffffff" fill-opacity="1"></use><g><use xlink:href="#a5LEktokI" opacity="1" fill-opacity="0" stroke="#000000" stroke-width="1" stroke-opacity="0"></use></g></g><g><use xlink:href="#b1CSdmv0BS" opacity="1" fill="#ffffff" fill-opacity="1"></use><g><use xlink:href="#b1CSdmv0BS" opacity="1" fill-opacity="0" stroke="#000000" stroke-width="1" stroke-opacity="0"></use></g></g><g><use xlink:href="#n2Mlxvvsbg" opacity="1" fill="#ffffff" fill-opacity="1"></use><g><use xlink:href="#n2Mlxvvsbg" opacity="1" fill-opacity="0" stroke="#000000" stroke-width="1" stroke-opacity="0"></use></g></g><g><use xlink:href="#c5VGJhCvk" opacity="1" fill="#ffffff" fill-opacity="1"></use><g><use xlink:href="#c5VGJhCvk" opacity="1" fill-opacity="0" stroke="#000000" stroke-width="1" stroke-opacity="0"></use></g></g><g><use xlink:href="#aaeG5SlAz" opacity="1" fill="#ffffff" fill-opacity="1"></use><g><use xlink:href="#aaeG5SlAz" opacity="1" fill-opacity="0" stroke="#000000" stroke-width="1" stroke-opacity="0"></use></g></g><g><use xlink:href="#bt9YHi9Yf" opacity="1" fill="#ffffff" fill-opacity="1"></use><g><use xlink:href="#bt9YHi9Yf" opacity="1" fill-opacity="0" stroke="#000000" stroke-width="1" stroke-opacity="0"></use></g></g><g><use xlink:href="#a3ha8Ms50u" opacity="1" fill="#ffffff" fill-opacity="1"></use><g><use xlink:href="#a3ha8Ms50u" opacity="1" fill-opacity="0" stroke="#000000" stroke-width="1" stroke-opacity="0"></use></g></g><g><use xlink:href="#d2VdBn8Tv" opacity="1" fill="#ffffff" fill-opacity="1"></use><g><use xlink:href="#d2VdBn8Tv" opacity="1" fill-opacity="0" stroke="#000000" stroke-width="1" stroke-opacity="0"></use></g></g><g><use xlink:href="#c961ZHivbI" opacity="1" fill="#ffffff" fill-opacity="1"></use><g><use xlink:href="#c961ZHivbI" opacity="1" fill-opacity="0" stroke="#000000" stroke-width="1" stroke-opacity="0"></use></g></g><g><use xlink:href="#abhV4ZHw" opacity="1" fill="#ffffff" fill-opacity="1"></use><g><use xlink:href="#abhV4ZHw" opacity="1" fill-opacity="0" stroke="#000000" stroke-width="1" stroke-opacity="0"></use></g></g><g><use xlink:href="#bYAxBfMDp" opacity="1" fill="#ffffff" fill-opacity="1"></use><g><use xlink:href="#bYAxBfMDp" opacity="1" fill-opacity="0" stroke="#000000" stroke-width="1" stroke-opacity="0"></use></g></g><g><use xlink:href="#c6PW7Dk4fU" opacity="1" fill="#ffffff" fill-opacity="1"></use><g><use xlink:href="#c6PW7Dk4fU" opacity="1" fill-opacity="0" stroke="#000000" stroke-width="1" stroke-opacity="0"></use></g></g><g><use xlink:href="#b1z3h6UfS" opacity="1" fill="#ffffff" fill-opacity="1"></use><g><use xlink:href="#b1z3h6UfS" opacity="1" fill-opacity="0" stroke="#000000" stroke-width="1" stroke-opacity="0"></use></g></g><g><use xlink:href="#c2jvuD5fB" opacity="1" fill="#ffffff" fill-opacity="1"></use><g><use xlink:href="#c2jvuD5fB" opacity="1" fill-opacity="0" stroke="#000000" stroke-width="1" stroke-opacity="0"></use></g></g><g><use xlink:href="#d4aMFWlzba" opacity="1" fill="#ffffff" fill-opacity="1"></use><g><use xlink:href="#d4aMFWlzba" opacity="1" fill-opacity="0" stroke="#000000" stroke-width="1" stroke-opacity="0"></use></g></g><g><use xlink:href="#b3GQPQ1mku" opacity="1" fill="#ffffff" fill-opacity="1"></use><g><use xlink:href="#b3GQPQ1mku" opacity="1" fill-opacity="0" stroke="#000000" stroke-width="1" stroke-opacity="0"></use></g></g><g><use xlink:href="#ezmw1cY32" opacity="1" fill="#ffffff" fill-opacity="1"></use><g><use xlink:href="#ezmw1cY32" opacity="1" fill-opacity="0" stroke="#000000" stroke-width="1" stroke-opacity="0"></use></g></g><g><use xlink:href="#a7yCmnILQ" opacity="1" fill="#ffffff" fill-opacity="1"></use><g><use xlink:href="#a7yCmnILQ" opacity="1" fill-opacity="0" stroke="#000000" stroke-width="1" stroke-opacity="0"></use></g></g><g><use xlink:href="#dl97JdzI9" opacity="1" fill="#ffffff" fill-opacity="1"></use><g><use xlink:href="#dl97JdzI9" opacity="1" fill-opacity="0" stroke="#000000" stroke-width="1" stroke-opacity="0"></use></g></g><g><use xlink:href="#bBLpMEXl" opacity="1" fill="#ffffff" fill-opacity="1"></use><g><use xlink:href="#bBLpMEXl" opacity="1" fill-opacity="0" stroke="#000000" stroke-width="1" stroke-opacity="0"></use></g></g><g><use xlink:href="#a2zBskPyVD" opacity="1" fill="#ffffff" fill-opacity="1"></use><g><use xlink:href="#a2zBskPyVD" opacity="1" fill-opacity="0" stroke="#000000" stroke-width="1" stroke-opacity="0"></use></g></g><g><use xlink:href="#boFKyp4Qj" opacity="1" fill="#ffffff" fill-opacity="1"></use><g><use xlink:href="#boFKyp4Qj" opacity="1" fill-opacity="0" stroke="#000000" stroke-width="1" stroke-opacity="0"></use></g></g><g><use xlink:href="#h1TIBVPIWt" opacity="1" fill="#ffffff" fill-opacity="1"></use><g><use xlink:href="#h1TIBVPIWt" opacity="1" fill-opacity="0" stroke="#000000" stroke-width="1" stroke-opacity="0"></use></g></g><g><use xlink:href="#eDvyu4uSq" opacity="1" fill="#ffffff" fill-opacity="1"></use><g><use xlink:href="#eDvyu4uSq" opacity="1" fill-opacity="0" stroke="#000000" stroke-width="1" stroke-opacity="0"></use></g></g><g><use xlink:href="#h100xHOpC" opacity="1" fill="#ffffff" fill-opacity="1"></use><g><use xlink:href="#h100xHOpC" opacity="1" fill-opacity="0" stroke="#000000" stroke-width="1" stroke-opacity="0"></use></g></g><g><use xlink:href="#cWGlfoycp" opacity="1" fill="#ffffff" fill-opacity="1"></use><g><use xlink:href="#cWGlfoycp" opacity="1" fill-opacity="0" stroke="#000000" stroke-width="1" stroke-opacity="0"></use></g></g><g><use xlink:href="#b4tYFvRdYs" opacity="1" fill="#ffffff" fill-opacity="1"></use><g><use xlink:href="#b4tYFvRdYs" opacity="1" fill-opacity="0" stroke="#000000" stroke-width="1" stroke-opacity="0"></use></g></g><g><use xlink:href="#c1SiDjVLLD" opacity="1" fill="#ffffff" fill-opacity="1"></use><g><use xlink:href="#c1SiDjVLLD" opacity="1" fill-opacity="0" stroke="#000000" stroke-width="1" stroke-opacity="0"></use></g></g><g><use xlink:href="#i1z55QSQT7" opacity="1" fill="#ffffff" fill-opacity="1"></use><g><use xlink:href="#i1z55QSQT7" opacity="1" fill-opacity="0" stroke="#000000" stroke-width="1" stroke-opacity="0"></use></g></g><g><use xlink:href="#a2fwiQAjfB" opacity="1" fill="#ffffff" fill-opacity="1"></use><g><use xlink:href="#a2fwiQAjfB" opacity="1" fill-opacity="0" stroke="#000000" stroke-width="1" stroke-opacity="0"></use></g></g><g><use xlink:href="#l27RthiiXJ" opacity="1" fill="#ffffff" fill-opacity="1"></use><g><use xlink:href="#l27RthiiXJ" opacity="1" fill-opacity="0" stroke="#000000" stroke-width="1" stroke-opacity="0"></use></g></g><g><use xlink:href="#b38OMhE5FR" opacity="1" fill="#ffffff" fill-opacity="1"></use><g><use xlink:href="#b38OMhE5FR" opacity="1" fill-opacity="0" stroke="#000000" stroke-width="1" stroke-opacity="0"></use></g></g><g><use xlink:href="#b6PXhgLfK" opacity="1" fill="#ffffff" fill-opacity="1"></use><g><use xlink:href="#b6PXhgLfK" opacity="1" fill-opacity="0" stroke="#000000" stroke-width="1" stroke-opacity="0"></use></g></g><g><use xlink:href="#hnRvKdqnF" opacity="1" fill="#ffffff" fill-opacity="1"></use><g><use xlink:href="#hnRvKdqnF" opacity="1" fill-opacity="0" stroke="#000000" stroke-width="1" stroke-opacity="0"></use></g></g><g><use xlink:href="#aThgh7B25" opacity="1" fill="#ffffff" fill-opacity="1"></use><g><use xlink:href="#aThgh7B25" opacity="1" fill-opacity="0" stroke="#000000" stroke-width="1" stroke-opacity="0"></use></g></g><g><use xlink:href="#d2s5yNdpWs" opacity="1" fill="#ffffff" fill-opacity="1"></use><g><use xlink:href="#d2s5yNdpWs" opacity="1" fill-opacity="0" stroke="#000000" stroke-width="1" stroke-opacity="0"></use></g></g><g><use xlink:href="#g3RtxsaE8f" opacity="1" fill="#ffffff" fill-opacity="1"></use><g><use xlink:href="#g3RtxsaE8f" opacity="1" fill-opacity="0" stroke="#000000" stroke-width="1" stroke-opacity="0"></use></g></g><g><use xlink:href="#bIWesYQw0" opacity="1" fill="#ffffff" fill-opacity="1"></use><g><use xlink:href="#bIWesYQw0" opacity="1" fill-opacity="0" stroke="#000000" stroke-width="1" stroke-opacity="0"></use></g></g><g><use xlink:href="#cgxOvqCPZ" opacity="1" fill="#ffffff" fill-opacity="1"></use><g><use xlink:href="#cgxOvqCPZ" opacity="1" fill-opacity="0" stroke="#000000" stroke-width="1" stroke-opacity="0"></use></g></g><g><use xlink:href="#f2WyM4QMTF" opacity="1" fill="#ffffff" fill-opacity="1"></use><g><use xlink:href="#f2WyM4QMTF" opacity="1" fill-opacity="0" stroke="#000000" stroke-width="1" stroke-opacity="0"></use></g></g><g><use xlink:href="#c2VLKuk0L" opacity="1" fill="#ffffff" fill-opacity="1"></use><g><use xlink:href="#c2VLKuk0L" opacity="1" fill-opacity="0" stroke="#000000" stroke-width="1" stroke-opacity="0"></use></g></g><g><use xlink:href="#bOJm7XefM" opacity="1" fill="#ffffff" fill-opacity="1"></use><g><use xlink:href="#bOJm7XefM" opacity="1" fill-opacity="0" stroke="#000000" stroke-width="1" stroke-opacity="0"></use></g></g><g><use xlink:href="#a2edxsYLH7" opacity="1" fill="#ffffff" fill-opacity="1"></use><g><use xlink:href="#a2edxsYLH7" opacity="1" fill-opacity="0" stroke="#000000" stroke-width="1" stroke-opacity="0"></use></g></g><g><use xlink:href="#bVRdP6CC" opacity="1" fill="#ffffff" fill-opacity="1"></use><g><use xlink:href="#bVRdP6CC" opacity="1" fill-opacity="0" stroke="#000000" stroke-width="1" stroke-opacity="0"></use></g></g><g><use xlink:href="#e1IvHEgQU9" opacity="1" fill="#ffffff" fill-opacity="1"></use><g><use xlink:href="#e1IvHEgQU9" opacity="1" fill-opacity="0" stroke="#000000" stroke-width="1" stroke-opacity="0"></use></g></g><g><use xlink:href="#a2m1Sg09a" opacity="1" fill="#ffffff" fill-opacity="1"></use><g><use xlink:href="#a2m1Sg09a" opacity="1" fill-opacity="0" stroke="#000000" stroke-width="1" stroke-opacity="0"></use></g></g><g><use xlink:href="#b13Yhkh2DY" opacity="1" fill="#ffffff" fill-opacity="1"></use><g><use xlink:href="#b13Yhkh2DY" opacity="1" fill-opacity="0" stroke="#000000" stroke-width="1" stroke-opacity="0"></use></g></g><g><use xlink:href="#a5ZcGnyjp" opacity="1" fill="#ffffff" fill-opacity="1"></use><g><use xlink:href="#a5ZcGnyjp" opacity="1" fill-opacity="0" stroke="#000000" stroke-width="1" stroke-opacity="0"></use></g></g><g><use xlink:href="#c1mTOYct6U" opacity="1" fill="#ffffff" fill-opacity="1"></use><g><use xlink:href="#c1mTOYct6U" opacity="1" fill-opacity="0" stroke="#000000" stroke-width="1" stroke-opacity="0"></use></g></g><g><use xlink:href="#fpYJnZsG" opacity="1" fill="#ffffff" fill-opacity="1"></use><g><use xlink:href="#fpYJnZsG" opacity="1" fill-opacity="0" stroke="#000000" stroke-width="1" stroke-opacity="0"></use></g></g><g><use xlink:href="#aKXXJD4cV" opacity="1" fill="#ffffff" fill-opacity="1"></use><g><use xlink:href="#aKXXJD4cV" opacity="1" fill-opacity="0" stroke="#000000" stroke-width="1" stroke-opacity="0"></use></g></g><g><use xlink:href="#e1lPH059Wo" opacity="1" fill="#ffffff" fill-opacity="1"></use><g><use xlink:href="#e1lPH059Wo" opacity="1" fill-opacity="0" stroke="#000000" stroke-width="1" stroke-opacity="0"></use></g></g><g><use xlink:href="#b15qy4fM9h" opacity="1" fill="#ffffff" fill-opacity="1"></use><g><use xlink:href="#b15qy4fM9h" opacity="1" fill-opacity="0" stroke="#000000" stroke-width="1" stroke-opacity="0"></use></g></g><g><use xlink:href="#a2EpzofQs" opacity="1" fill="#ffffff" fill-opacity="1"></use><g><use xlink:href="#a2EpzofQs" opacity="1" fill-opacity="0" stroke="#000000" stroke-width="1" stroke-opacity="0"></use></g></g><g><use xlink:href="#eaQfhetJa" opacity="1" fill="#ffffff" fill-opacity="1"></use><g><use xlink:href="#eaQfhetJa" opacity="1" fill-opacity="0" stroke="#000000" stroke-width="1" stroke-opacity="0"></use></g></g><g><use xlink:href="#adcXNoUCX" opacity="1" fill="#ffffff" fill-opacity="1"></use><g><use xlink:href="#adcXNoUCX" opacity="1" fill-opacity="0" stroke="#000000" stroke-width="1" stroke-opacity="0"></use></g></g><g><use xlink:href="#b5HDIC7Qq" opacity="1" fill="#ffffff" fill-opacity="1"></use><g><use xlink:href="#b5HDIC7Qq" opacity="1" fill-opacity="0" stroke="#000000" stroke-width="1" stroke-opacity="0"></use></g></g><g><use xlink:href="#aX0TjtaQ" opacity="1" fill="#ffffff" fill-opacity="1"></use><g><use xlink:href="#aX0TjtaQ" opacity="1" fill-opacity="0" stroke="#000000" stroke-width="1" stroke-opacity="0"></use></g></g><g><use xlink:href="#a2aXUI0hmo" opacity="1" fill="#ffffff" fill-opacity="1"></use><g><use xlink:href="#a2aXUI0hmo" opacity="1" fill-opacity="0" stroke="#000000" stroke-width="1" stroke-opacity="0"></use></g></g><g><use xlink:href="#c1wBneRtDu" opacity="1" fill="#ffffff" fill-opacity="1"></use><g><use xlink:href="#c1wBneRtDu" opacity="1" fill-opacity="0" stroke="#000000" stroke-width="1" stroke-opacity="0"></use></g></g><g><use xlink:href="#b1vzxuvMPQ" opacity="1" fill="#ffffff" fill-opacity="1"></use><g><use xlink:href="#b1vzxuvMPQ" opacity="1" fill-opacity="0" stroke="#000000" stroke-width="1" stroke-opacity="0"></use></g></g><g><use xlink:href="#e3vg0QcLhu" opacity="1" fill="#ffffff" fill-opacity="1"></use><g><use xlink:href="#e3vg0QcLhu" opacity="1" fill-opacity="0" stroke="#000000" stroke-width="1" stroke-opacity="0"></use></g></g><g><use xlink:href="#a66H71lIa" opacity="1" fill="#ffffff" fill-opacity="1"></use><g><use xlink:href="#a66H71lIa" opacity="1" fill-opacity="0" stroke="#000000" stroke-width="1" stroke-opacity="0"></use></g></g><g><use xlink:href="#b2f6PHNzzP" opacity="1" fill="#ffffff" fill-opacity="1"></use><g><use xlink:href="#b2f6PHNzzP" opacity="1" fill-opacity="0" stroke="#000000" stroke-width="1" stroke-opacity="0"></use></g></g><g><use xlink:href="#e1eqNIVU5T" opacity="1" fill="#ffffff" fill-opacity="1"></use><g><use xlink:href="#e1eqNIVU5T" opacity="1" fill-opacity="0" stroke="#000000" stroke-width="1" stroke-opacity="0"></use></g></g><g><use xlink:href="#coZXmTP43" opacity="1" fill="#ffffff" fill-opacity="1"></use><g><use xlink:href="#coZXmTP43" opacity="1" fill-opacity="0" stroke="#000000" stroke-width="1" stroke-opacity="0"></use></g></g><g><use xlink:href="#a89CaKzEvX" opacity="1" fill="#ffffff" fill-opacity="1"></use><g><use xlink:href="#a89CaKzEvX" opacity="1" fill-opacity="0" stroke="#000000" stroke-width="1" stroke-opacity="0"></use></g></g><g><use xlink:href="#aLC3MSxAS" opacity="1" fill="#ffffff" fill-opacity="1"></use><g><use xlink:href="#aLC3MSxAS" opacity="1" fill-opacity="0" stroke="#000000" stroke-width="1" stroke-opacity="0"></use></g></g><g><use xlink:href="#b8QASXKkP" opacity="1" fill="#ffffff" fill-opacity="1"></use><g><use xlink:href="#b8QASXKkP" opacity="1" fill-opacity="0" stroke="#000000" stroke-width="1" stroke-opacity="0"></use></g></g><g><use xlink:href="#cbZRDkxsG" opacity="1" fill="#ffffff" fill-opacity="1"></use><g><use xlink:href="#cbZRDkxsG" opacity="1" fill-opacity="0" stroke="#000000" stroke-width="1" stroke-opacity="0"></use></g></g><g><use xlink:href="#dprsBM1UD" opacity="1" fill="#ffffff" fill-opacity="1"></use><g><use xlink:href="#dprsBM1UD" opacity="1" fill-opacity="0" stroke="#000000" stroke-width="1" stroke-opacity="0"></use></g></g><g><use xlink:href="#a334uDW4q" opacity="1" fill="#ffffff" fill-opacity="1"></use><g><use xlink:href="#a334uDW4q" opacity="1" fill-opacity="0" stroke="#000000" stroke-width="1" stroke-opacity="0"></use></g></g><g><use xlink:href="#aRyFXC6YY" opacity="1" fill="#ffffff" fill-opacity="1"></use><g><use xlink:href="#aRyFXC6YY" opacity="1" fill-opacity="0" stroke="#000000" stroke-width="1" stroke-opacity="0"></use></g></g><g><use xlink:href="#b2wSL0lWP" opacity="1" fill="#ffffff" fill-opacity="1"></use><g><use xlink:href="#b2wSL0lWP" opacity="1" fill-opacity="0" stroke="#000000" stroke-width="1" stroke-opacity="0"></use></g></g><g><use xlink:href="#cj3L0PQck" opacity="1" fill="#ffffff" fill-opacity="1"></use><g><use xlink:href="#cj3L0PQck" opacity="1" fill-opacity="0" stroke="#000000" stroke-width="1" stroke-opacity="0"></use></g></g><g><use xlink:href="#b9vzNOiNm" opacity="1" fill="#ffffff" fill-opacity="1"></use><g><use xlink:href="#b9vzNOiNm" opacity="1" fill-opacity="0" stroke="#000000" stroke-width="1" stroke-opacity="0"></use></g></g><g><use xlink:href="#b8V2TvBGr" opacity="1" fill="#ffffff" fill-opacity="1"></use><g><use xlink:href="#b8V2TvBGr" opacity="1" fill-opacity="0" stroke="#000000" stroke-width="1" stroke-opacity="0"></use></g></g><g><use xlink:href="#bTkHkx8Yi" opacity="1" fill="#ffffff" fill-opacity="1"></use><g><use xlink:href="#bTkHkx8Yi" opacity="1" fill-opacity="0" stroke="#000000" stroke-width="1" stroke-opacity="0"></use></g></g><g><use xlink:href="#c61NQRNUEq" opacity="1" fill="#ffffff" fill-opacity="1"></use><g><use xlink:href="#c61NQRNUEq" opacity="1" fill-opacity="0" stroke="#000000" stroke-width="1" stroke-opacity="0"></use></g></g><g><use xlink:href="#berARPYoC" opacity="1" fill="#ffffff" fill-opacity="1"></use><g><use xlink:href="#berARPYoC" opacity="1" fill-opacity="0" stroke="#000000" stroke-width="1" stroke-opacity="0"></use></g></g><g><use xlink:href="#b2KXJ0SEBZ" opacity="1" fill="#ffffff" fill-opacity="1"></use><g><use xlink:href="#b2KXJ0SEBZ" opacity="1" fill-opacity="0" stroke="#000000" stroke-width="1" stroke-opacity="0"></use></g></g><g><use xlink:href="#aAp7FTSAp" opacity="1" fill="#ffffff" fill-opacity="1"></use><g><use xlink:href="#aAp7FTSAp" opacity="1" fill-opacity="0" stroke="#000000" stroke-width="1" stroke-opacity="0"></use></g></g><g><use xlink:href="#fuR8AkcWd" opacity="1" fill="#ffffff" fill-opacity="1"></use><g><use xlink:href="#fuR8AkcWd" opacity="1" fill-opacity="0" stroke="#000000" stroke-width="1" stroke-opacity="0"></use></g></g><g><use xlink:href="#c27h2cN5l" opacity="1" fill="#ffffff" fill-opacity="1"></use><g><use xlink:href="#c27h2cN5l" opacity="1" fill-opacity="0" stroke="#000000" stroke-width="1" stroke-opacity="0"></use></g></g><g><use xlink:href="#a2Hg1FWjaK" opacity="1" fill="#ffffff" fill-opacity="1"></use><g><use xlink:href="#a2Hg1FWjaK" opacity="1" fill-opacity="0" stroke="#000000" stroke-width="1" stroke-opacity="0"></use></g></g><g><use xlink:href="#dsfxzwq4g" opacity="1" fill="#ffffff" fill-opacity="1"></use><g><use xlink:href="#dsfxzwq4g" opacity="1" fill-opacity="0" stroke="#000000" stroke-width="1" stroke-opacity="0"></use></g></g><g><use xlink:href="#asMWOJ9x3" opacity="1" fill="#ffffff" fill-opacity="1"></use><g><use xlink:href="#asMWOJ9x3" opacity="1" fill-opacity="0" stroke="#000000" stroke-width="1" stroke-opacity="0"></use></g></g><g><use xlink:href="#i2RxZAjHv5" opacity="1" fill="#ffffff" fill-opacity="1"></use><g><use xlink:href="#i2RxZAjHv5" opacity="1" fill-opacity="0" stroke="#000000" stroke-width="1" stroke-opacity="0"></use></g></g><g><use xlink:href="#auYJezfMp" opacity="1" fill="#ffffff" fill-opacity="1"></use><g><use xlink:href="#auYJezfMp" opacity="1" fill-opacity="0" stroke="#000000" stroke-width="1" stroke-opacity="0"></use></g></g><g><use xlink:href="#b46bQBR1Pa" opacity="1" fill="#ffffff" fill-opacity="1"></use><g><use xlink:href="#b46bQBR1Pa" opacity="1" fill-opacity="0" stroke="#000000" stroke-width="1" stroke-opacity="0"></use></g></g><g><use xlink:href="#b1WP8tgZgb" opacity="1" fill="#ffffff" fill-opacity="1"></use><g><use xlink:href="#b1WP8tgZgb" opacity="1" fill-opacity="0" stroke="#000000" stroke-width="1" stroke-opacity="0"></use></g></g><g><use xlink:href="#eGIqaf9Ss" opacity="1" fill="#ffffff" fill-opacity="1"></use><g><use xlink:href="#eGIqaf9Ss" opacity="1" fill-opacity="0" stroke="#000000" stroke-width="1" stroke-opacity="0"></use></g></g><g><use xlink:href="#c4smIiBUZ" opacity="1" fill="#ffffff" fill-opacity="1"></use><g><use xlink:href="#c4smIiBUZ" opacity="1" fill-opacity="0" stroke="#000000" stroke-width="1" stroke-opacity="0"></use></g></g><g><use xlink:href="#b28iun1NnN" opacity="1" fill="#ffffff" fill-opacity="1"></use><g><use xlink:href="#b28iun1NnN" opacity="1" fill-opacity="0" stroke="#000000" stroke-width="1" stroke-opacity="0"></use></g></g><g><use xlink:href="#f1Swlh0YsO" opacity="1" fill="#ffffff" fill-opacity="1"></use><g><use xlink:href="#f1Swlh0YsO" opacity="1" fill-opacity="0" stroke="#000000" stroke-width="1" stroke-opacity="0"></use></g></g><g><use xlink:href="#c5BWuA2NmU" opacity="1" fill="#ffffff" fill-opacity="1"></use><g><use xlink:href="#c5BWuA2NmU" opacity="1" fill-opacity="0" stroke="#000000" stroke-width="1" stroke-opacity="0"></use></g></g><g><use xlink:href="#g1FGrlBm3Y" opacity="1" fill="#ffffff" fill-opacity="1"></use><g><use xlink:href="#g1FGrlBm3Y" opacity="1" fill-opacity="0" stroke="#000000" stroke-width="1" stroke-opacity="0"></use></g></g><g><use xlink:href="#h1rQAjUnPB" opacity="1" fill="#ffffff" fill-opacity="1"></use><g><use xlink:href="#h1rQAjUnPB" opacity="1" fill-opacity="0" stroke="#000000" stroke-width="1" stroke-opacity="0"></use></g></g><g><use xlink:href="#f1uaTtX2R9" opacity="1" fill="#ffffff" fill-opacity="1"></use><g><use xlink:href="#f1uaTtX2R9" opacity="1" fill-opacity="0" stroke="#000000" stroke-width="1" stroke-opacity="0"></use></g></g></g></g></svg>