<svg id="Layer_2" data-name="Layer 2" xmlns="http://www.w3.org/2000/svg" viewBox="0 0 256 56.7"><defs><style>.cls-1{fill:#ffca05;}.cls-2{fill:#d71635;}</style></defs><title>dhl</title><polygon class="cls-1" points="256 0.1 256 56.6 0 56.6 0 0.1 256 0.1 256 0.1"/><path class="cls-2" d="M45,10.25L36.84,21.36H81.42c2.25,0,2.22.86,1.12,2.35s-3,4.15-4.13,5.69c-0.58.78-1.62,2.2,1.84,2.2H98.48l5.4-7.34c3.35-4.55.29-14-11.69-14H45Z"/><path class="cls-2" d="M33.53,46.45L50,24.13H70.34c2.25,0,2.22.86,1.12,2.35s-3,4.12-4.16,5.66c-0.58.78-1.62,2.21,1.84,2.21H96.46c-2.27,3.11-9.64,12.11-22.87,12.11H33.53Z"/><path class="cls-2" d="M127.62,34.34l-8.91,12.11H95.21s8.9-12.11,8.91-12.11h23.5Z"/><polygon class="cls-2" points="163.62 31.6 106.14 31.6 121.86 10.25 145.35 10.25 136.34 22.49 146.83 22.49 155.84 10.25 179.33 10.25 163.62 31.6 163.62 31.6"/><path class="cls-2" d="M161.6,34.34l-8.91,12.11H129.19s8.9-12.11,8.91-12.11H161.6Z"/><polygon class="cls-2" points="0 39.12 34.62 39.12 32.73 41.69 0 41.69 0 39.12 0 39.12"/><polygon class="cls-2" points="0 34.34 38.13 34.34 36.24 36.91 0 36.91 0 34.34 0 34.34"/><polygon class="cls-2" points="0 43.9 31.1 43.9 29.22 46.45 0 46.45 0 43.9 0 43.9"/><polygon class="cls-2" points="256 41.69 221.51 41.69 223.41 39.12 256 39.12 256 41.69 256 41.69"/><polygon class="cls-2" points="256 46.45 218.01 46.45 219.89 43.9 256 43.9 256 46.45 256 46.45"/><polygon class="cls-2" points="226.92 34.34 256 34.34 256 36.91 225.03 36.91 226.92 34.34 226.92 34.34"/><path class="cls-2" d="M211.87,10.25L196.15,31.6H171.26S187,10.25,187,10.25h24.88Z"/><path class="cls-2" d="M169.24,34.34l-2.55,3.47c-3,4-.34,8.63,9.29,8.63h37.73l8.91-12.11H169.24Z"/></svg>