<?xml version="1.0" encoding="utf-8"?>
<!-- Generator: Adobe Illustrator 21.0.0, SVG Export Plug-In . SVG Version: 6.00 Build 0)  -->
<svg version="1.1" id="Layer_1" xmlns="http://www.w3.org/2000/svg" xmlns:xlink="http://www.w3.org/1999/xlink" x="0px" y="0px"
	 viewBox="0 0 250 73" style="enable-background:new 0 0 250 73;" xml:space="preserve">
<style type="text/css">
	.st0{fill:#013C81;}
	.st1{fill:#FFFFFF;}
	.st2{fill:#FFCD00;}
	.st3{fill:#231F20;}
	.st4{fill:#525349;}
	.st5{fill:#8B8B84;}
	.st6{fill:#B2BB1E;}
	.st7{fill:#797878;}
	.st8{fill:#F79635;}
	.st9{fill:#EC7408;}
	.st10{fill:#F57C00;}
	.st11{fill:#FFD14B;}
	.st12{fill:#FFC720;}
	.st13{fill:#0F9D59;}
	.st14{fill:#0A6E3D;}
	.st15{fill:#4284F4;}
	.st16{fill:#77777A;}
	.st17{fill:#3274EF;}
	.st18{fill:#3375EF;}
	.st19{fill:#F9B005;}
	.st20{fill:#E43327;}
	.st21{fill:#269A43;}
</style>
<g>
	<path class="st2" d="M0,73V0h50.8v69.5V73H0z M47.3,69.5V66V69.5z M7.1,66h36.7V7.1H7.1V66z"/>
	<g>
		<polygon points="68.1,9.5 70.8,9.5 82.2,29.2 82.3,29.2 82.3,9.5 84.5,9.5 84.5,31.9 81.5,31.9 70.3,12.6 70.3,12.6 70.3,31.9 
			68.1,31.9 		"/>
		<path d="M81,32.8l-9.8-17v17h-4V9.5V8.7h4.2l10,17.3V8.7h4v24.1H81z M70.3,11.7h0.6L82,31h1.6V10.4h-0.4v19.6h-0.9h-0.6L70.3,10.4
			h-1.4V31h0.4V11.7H70.3z"/>
		<path d="M96.5,9.5H99l8.9,22.3h-2.3l-2.4-6H91.9l-2.4,6h-2.1L96.5,9.5z M97.6,11.7L92.7,24h9.7L97.6,11.7z"/>
		<path d="M105,32.8l-2.4-6H92.5l-2.4,6H86l9.6-23.5l0.2-0.5h3.7l9.6,24.1H105z M103.8,25l2.4,6h0.4l-8.2-20.6h-0.3l5.7,14.4H91.4
			l5.3-13.5l0.4-0.9h0L88.7,31h0.2l2.4-6H103.8z M94,23.1h7.1l-3.5-9L94,23.1z M96.8,12l0.8-0.3L96.8,12z"/>
		<polygon points="113,11.5 106.4,11.5 106.4,9.5 121.8,9.5 121.8,11.5 115.2,11.5 115.2,31.9 113,31.9 		"/>
		<path d="M112.1,32.8V12.3h-6.6V8.7h17.2v3.7h-6.6v20.4H112.1z M113.9,10.6V31h0.4V10.6h6.6v-0.2h-13.6v0.2h5.7v0.9v-0.9H113.9z"/>
		<rect x="124.6" y="9.5" width="2.2" height="22.3"/>
		<path d="M123.7,32.8V9.5V8.7h4v24.1H123.7z M125.4,31h0.4V10.4h-0.4V31z"/>
		<path d="M140.7,9.2c6.7,0,9.9,5.5,9.8,11.5c-0.1,6.8-3.4,11.5-9.8,11.5s-9.8-4.7-9.8-11.5C130.9,14.7,134,9.2,140.7,9.2
			 M133.1,20.7c0,4.7,2.4,9.6,7.6,9.6s7.6-4.9,7.6-9.6c0-4.7-2.4-9.6-7.6-9.6S133.1,16,133.1,20.7"/>
		<path d="M140.7,33.1c-7,0.1-10.7-5.3-10.7-12.4c0-0.1,0-0.1,0-0.2c0-3.1,0.8-6.2,2.6-8.5c1.8-2.3,4.5-3.8,8.1-3.8v0.9V10
			c-6.1,0-8.9,4.8-8.9,10.5c0,0,0,0.1,0,0.2c0.2,6.6,3,10.6,8.9,10.7c5.9-0.1,8.8-4.1,8.9-10.6c0-0.1,0-0.2,0-0.2
			c-0.1-5.7-2.9-10.5-8.9-10.5V9.2V8.3c3.6,0,6.3,1.5,8.1,3.8c1.8,2.3,2.6,5.3,2.6,8.5c0,0.1,0,0.1,0,0.2c0,7.1-3.7,12.4-10.6,12.4
			C140.8,33.1,140.8,33.1,140.7,33.1 M140.7,31.2c-2.9,0-5.1-1.4-6.5-3.4c-1.4-2-2-4.6-2-7.1c0-2.5,0.6-5.1,2-7.1
			c1.4-2,3.6-3.4,6.5-3.4c2.9,0,5.1,1.4,6.5,3.4c1.4,2,2,4.6,2,7.1c0,2.5-0.6,5.1-2,7.1C145.9,29.8,143.7,31.2,140.7,31.2
			C140.8,31.2,140.8,31.2,140.7,31.2 M134,20.7c0,2.2,0.6,4.5,1.7,6.1c1.1,1.6,2.7,2.6,5,2.7c2.3,0,3.9-1,5-2.7
			c1.1-1.6,1.7-3.9,1.7-6.1c0-2.2-0.6-4.5-1.7-6.1c-1.1-1.6-2.7-2.6-5-2.7c-2.3,0-3.9,1-5,2.7C134.6,16.2,134,18.5,134,20.7
			L134,20.7z"/>
		<polygon points="154.7,9.5 157.5,9.5 168.9,29.2 168.9,29.2 168.9,9.5 171.2,9.5 171.2,31.9 168.2,31.9 157,12.6 157,12.6 
			157,31.9 154.7,31.9 		"/>
		<path d="M167.7,32.8l-9.8-17v17h-4V9.5V8.7h4.2l10,17.3V8.7h4v24.1H167.7z M157,11.7h0.6L168.7,31h1.6V10.4h-0.4v19.6h-0.9h-0.6
			L157,10.4h-1.4l0,20.6h0.4V11.7H157z"/>
		<path d="M183.2,9.5h2.5l8.9,22.3h-2.3l-2.4-6h-11.3l-2.4,6H174L183.2,9.5z M184.3,11.7L179.4,24h9.7L184.3,11.7z"/>
		<path d="M191.6,32.8l-2.4-6h-10.1l-2.4,6h-4.1l9.6-23.5l0.2-0.5h3.7l9.6,24.1H191.6z M190.4,25l2.4,6h0.4l-8.2-20.6h-0.3l5.7,14.4
			h-12.3l5.3-13.5l0.4-0.9h0L175.3,31h0.2l2.4-6H190.4z M180.7,23.1h7.1l-3.5-9L180.7,23.1z M183.4,12l0.8-0.3L183.4,12z"/>
		<polygon points="197.5,9.5 199.7,9.5 199.7,30 208.7,30 208.7,31.9 197.5,31.9 		"/>
		<path d="M196.6,32.8V9.5V8.7h4v20.4h9v3.7H196.6z M198.4,31h9.4v-0.1h-9V10.4h-0.4V31z"/>
		<path d="M80.1,53.5h-0.2v-1.9h2.4v11.1c-2.3,1-4.5,1.4-6.9,1.4c-7,0-11.3-4.6-11.3-11.5c0-6.8,4.4-11.5,11.3-11.5
			c1.7,0,4.5,0.3,6,1.1l-0.3,2c-1.7-1-3.8-1.2-5.7-1.2c-5.8,0-9.1,4.1-9.1,9.6c0,5.6,3.2,9.6,9.1,9.6c1.4,0,3.7-0.2,4.7-0.8V53.5z"
			/>
		<path d="M75.4,64.9c-3.7,0-6.8-1.2-8.9-3.5c-2.1-2.2-3.2-5.3-3.2-9c0-3.6,1.2-6.7,3.3-8.9c2.1-2.2,5.2-3.5,8.9-3.5
			c1.8,0,4.6,0.3,6.4,1.2l0.6,0.3l-0.5,4l-1.1-0.6c-1.5-0.8-3.4-1.1-5.3-1.1c-5.3,0.1-8.1,3.5-8.2,8.7c0.1,5.3,2.7,8.7,8.2,8.7
			c1.1,0,2.9-0.1,3.8-0.5v-6.4H79v-3.7h4.2v12.6l-0.5,0.2C80.3,64.5,77.9,64.9,75.4,64.9L75.4,64.9z M75.4,41.8
			c-6.5,0.1-10.3,4.3-10.4,10.7c0.1,6.5,3.8,10.6,10.4,10.7c2.2,0,4.1-0.3,6.1-1.1v-9.6h-0.6v0.2H81v9.2l-0.4,0.3
			c-1.4,0.8-3.7,0.9-5.2,0.9c-3.1,0-5.7-1.1-7.4-3c-1.7-1.9-2.5-4.5-2.5-7.5c0-2.9,0.9-5.6,2.6-7.5c1.7-1.9,4.3-3,7.4-3
			c1.6,0,3.4,0.1,5,0.8l0-0.2c-1.3-0.5-3.5-0.7-4.9-0.7H75.4z"/>
		<polygon points="87.9,41.3 98.8,41.3 98.8,43.2 90.1,43.2 90.1,51.2 98.4,51.2 98.4,53.1 90.1,53.1 90.1,61.7 99.2,61.7 
			99.2,63.7 87.9,63.7 		"/>
		<path d="M87,64.5V41.3v-0.9h12.7v3.7H91v6.2h8.3V54H91v6.8h9.1v3.7H87z M88.8,62.8h9.6v-0.1h-9.1V52.2h8.3v-0.1h-8.3v-9.7H98v-0.1
			h-9.2V62.8z"/>
		<path d="M112.7,40.9c6.7,0,9.9,5.5,9.8,11.5c-0.1,6.8-3.4,11.5-9.8,11.5c-6.4,0-9.8-4.7-9.8-11.5C102.8,46.4,106,40.9,112.7,40.9
			 M105.1,52.5c0,4.7,2.4,9.6,7.6,9.6c5.2,0,7.6-4.9,7.6-9.6c0-4.7-2.4-9.6-7.6-9.6C107.5,42.9,105.1,47.8,105.1,52.5"/>
		<path d="M112.7,64.9c-7,0.1-10.7-5.3-10.7-12.4c0-0.1,0-0.1,0-0.2c0-3.1,0.8-6.2,2.6-8.5c1.8-2.3,4.5-3.8,8.1-3.8v0.9v0.9
			c-6.1,0-8.9,4.8-8.9,10.5c0,0.1,0,0.1,0,0.2c0.1,6.6,3,10.6,8.9,10.7c5.9-0.1,8.8-4.1,8.9-10.6c0-0.1,0-0.2,0-0.2
			c-0.1-5.7-2.9-10.5-8.9-10.5v-0.9v-0.9c3.6,0,6.3,1.5,8.1,3.8c1.8,2.3,2.6,5.3,2.6,8.5v0.2c0,7.1-3.7,12.4-10.6,12.4H112.7z
			 M112.7,63c-2.9,0-5.1-1.4-6.5-3.4c-1.4-2-2-4.6-2-7.1c0-2.5,0.6-5.1,2-7.1c1.4-2,3.6-3.4,6.5-3.4c2.9,0,5.1,1.4,6.5,3.4
			c1.4,2,2,4.6,2,7.1c0,2.5-0.6,5.1-2,7.1C117.8,61.6,115.6,63,112.7,63C112.7,63,112.7,63,112.7,63 M106,52.5
			c0,2.2,0.6,4.5,1.7,6.1c1.1,1.6,2.7,2.6,5,2.7c2.3,0,3.9-1,5-2.7c1.1-1.6,1.7-3.9,1.7-6.1c0-2.2-0.6-4.5-1.7-6.1
			c-1.1-1.6-2.7-2.6-5-2.7c-2.3,0-3.9,1-5,2.7C106.5,48,106,50.3,106,52.5L106,52.5z"/>
		<path d="M150.2,41.3h5.8c4,0,6.6,1.7,6.6,5.8c0,2.9-2.2,4.8-5,5.2v0.1c1.8,0.2,2.2,1.2,2.9,2.7l3.8,8.6h-2.4l-3.2-7.6
			c-1.3-2.9-2.2-3-4.3-3h-1.8v10.5h-2.2V41.3z M152.4,51.2h2.3c2.6,0,5.6-1,5.6-4.1c0-3.6-2.6-3.9-5.6-3.9h-2.3V51.2z"/>
		<path d="M161.2,64.5l-3.5-8.1c-0.6-1.4-1.1-1.9-1.5-2.2c-0.4-0.2-1-0.3-2-0.3h-0.9v10.5h-4V41.3v-0.9l6.6,0c2.1,0,4,0.4,5.3,1.6
			c1.4,1.1,2.1,2.9,2.1,5.1c0,2.5-1.5,4.4-3.5,5.4c0.6,0.6,1,1.4,1.3,2.2l4.4,9.9H161.2z M159.3,55.8l3,7h0.5l-3.3-7.4
			c-0.7-1.4-0.8-1.9-1.8-2.1C158.4,53.8,158.8,54.6,159.3,55.8 M151,62.8h0.4V52.2h2.7c0.9,0,1.7,0,2.4,0.3v-0.2v-0.4
			c-0.6,0.1-1.3,0.2-1.9,0.2h-2.3h-0.9v-9.7h3.2c1.5,0,3,0,4.3,0.7c1.3,0.6,2.2,2.1,2.2,4.1c0,1.6-0.7,2.8-1.7,3.6
			c1.3-0.7,2.1-2,2.2-3.6c0-1.9-0.6-3-1.5-3.7c-0.9-0.8-2.3-1.2-4.2-1.2H151V62.8z M154.7,50.3c1.2,0,2.4-0.2,3.3-0.8
			c0.9-0.5,1.4-1.2,1.4-2.5c0-1.6-0.5-2.1-1.2-2.5c-0.8-0.4-2.1-0.5-3.6-0.5h-1.4v6.2H154.7z"/>
		<path d="M174.7,41.3h2.5l8.9,22.3h-2.3l-2.4-6h-11.3l-2.4,6h-2.1L174.7,41.3z M175.8,43.4l-4.9,12.3h9.7L175.8,43.4z"/>
		<path d="M183.1,64.5l-2.4-6h-10.1l-2.4,6h-4.1l9.7-23.5l0.2-0.5h3.7l9.6,24.1H183.1z M181.9,56.8l2.4,6h0.4l-8.2-20.6h-0.3
			l5.7,14.4h-12.3l5.3-13.5l0.4-0.9h0l-8.4,20.6h0.2l2.4-6H181.9z M172.2,54.9h7.1l-3.5-9L172.2,54.9z M174.9,43.8l0.8-0.3
			L174.9,43.8z"/>
		<path d="M189.2,41.3h5.5c4.2,0,6.9,2.1,6.9,6.3c0,4.2-3.1,6.3-7.1,6.3h-3.1v9.7h-2.2V41.3z M191.4,52.1h1.5c3.3,0,6.5-0.4,6.5-4.4
			c0-2.8-1.6-4.4-4.4-4.4h-3.6V52.1z"/>
		<path d="M188.3,64.5V41.3v-0.9h6.4c2.2,0,4.2,0.6,5.6,1.8c1.4,1.2,2.2,3.1,2.2,5.4c0,2.3-0.9,4.2-2.4,5.4
			c-1.5,1.2-3.5,1.8-5.6,1.8h-2.2v9.7H188.3z M190.1,62.8h0.4v-9.7l4,0c3.7-0.1,6.2-1.8,6.2-5.4c-0.1-3.8-2.1-5.3-6-5.4h-4.6V62.8z
			 M191.4,53h-0.9V42.4h4.5c1.6,0,2.9,0.5,3.9,1.4c1,1,1.4,2.3,1.4,3.9c0,2.2-1,3.8-2.5,4.5c-1.5,0.7-3.2,0.8-4.9,0.8H191.4z
			 M192.9,51.2c1.6,0,3.1-0.1,4.1-0.6c0.9-0.5,1.5-1.1,1.5-2.9c-0.1-2.5-1.1-3.4-3.5-3.5h-2.7v7.1H192.9z"/>
		<polygon points="205.3,41.3 207.5,41.3 207.5,51.2 218.8,51.2 218.8,41.3 221,41.3 221,63.7 218.8,63.7 218.8,53.1 207.5,53.1 
			207.5,63.7 205.3,63.7 		"/>
		<path d="M217.9,64.5V54h-9.5v10.5h-4V41.3v-0.9h4v9.9h9.5v-9.9h4v24.1H217.9z M219.6,52.2v10.5h0.4V42.2h-0.4v9.9h-13.1l0-9.9
			h-0.4l0,20.6h0.4V52.2H219.6z"/>
		<rect x="226.2" y="41.3" width="2.2" height="22.3"/>
		<path d="M225.4,64.5V41.3v-0.9h4v24.1H225.4z M227.1,62.8h0.4V42.2h-0.4L227.1,62.8z"/>
		<path d="M249,43.8c-1.4-0.7-3.4-1-5-1c-5.8,0-9.1,4.1-9.1,9.6c0,5.6,3.2,9.6,9.1,9.6c1.5,0,3.7-0.2,5-1l0.1,1.9
			c-1.2,0.7-3.7,1-5.1,1c-7,0-11.3-4.6-11.3-11.5c0-6.8,4.3-11.5,11.3-11.5c1.3,0,4,0.2,5.1,0.8L249,43.8z"/>
		<path d="M235.1,61.5c-2.1-2.2-3.2-5.3-3.2-9c0-3.6,1.2-6.7,3.3-8.9c2.1-2.2,5.2-3.5,8.9-3.5c1.4,0,4,0.2,5.5,0.9l0.5,0.3l-0.2,2.6
			l-0.1,1.4l-1.2-0.6c-1.2-0.6-3.1-0.9-4.6-0.9c-5.3,0.1-8.1,3.5-8.2,8.7c0.1,5.3,2.7,8.7,8.2,8.7c1.4,0,3.6-0.2,4.5-0.8l1.2-0.7
			l0.3,3.9l-0.5,0.3c-1.6,0.9-4.1,1.1-5.6,1.1h0C240.2,64.9,237.2,63.7,235.1,61.5 M244,41.8c-6.5,0.1-10.3,4.3-10.4,10.7
			c0.1,6.5,3.8,10.6,10.4,10.7c1.1,0,3.1-0.2,4.2-0.6l0-0.1c-1.4,0.4-3,0.5-4.2,0.5c-3.1,0-5.7-1.1-7.4-3c-1.7-1.9-2.5-4.5-2.5-7.5
			c0-2.9,0.9-5.6,2.6-7.5c1.7-1.9,4.3-3,7.4-3c1.3,0,2.8,0.1,4.2,0.6l0-0.2c-1.1-0.3-3-0.5-4.1-0.5C244.1,41.8,244,41.8,244,41.8
			 M249,43.8l0.4-0.8L249,43.8z"/>
		<path d="M142,53.5h-0.2v-1.9h2.4v11.1c-2.3,1-4.5,1.4-6.9,1.4c-7,0-11.3-4.6-11.3-11.5c0-6.8,4.3-11.5,11.3-11.5
			c1.7,0,4.5,0.3,6,1.1l-0.3,2c-1.7-1-3.8-1.2-5.7-1.2c-5.8,0-9.1,4.1-9.1,9.6c0,5.6,3.2,9.6,9.1,9.6c1.4,0,3.7-0.2,4.7-0.8V53.5z"
			/>
		<path d="M137.2,64.9c-3.7,0-6.8-1.2-8.9-3.5c-2.1-2.2-3.2-5.3-3.2-9c0-3.6,1.2-6.7,3.3-8.9c2.1-2.2,5.2-3.5,8.9-3.5
			c1.8,0,4.6,0.3,6.4,1.2l0.6,0.3l-0.5,4l-1.1-0.6c-1.5-0.8-3.4-1.1-5.3-1.1c-5.3,0.1-8.1,3.5-8.2,8.7c0.1,5.3,2.7,8.7,8.2,8.7
			c1.1,0,2.9-0.1,3.9-0.5v-6.4h-0.2v-3.7h4.2v12.6l-0.5,0.2C142.2,64.5,139.8,64.9,137.2,64.9L137.2,64.9z M137.2,41.8
			c-6.5,0.1-10.3,4.3-10.4,10.7c0.1,6.5,3.8,10.6,10.4,10.7c2.2,0,4.1-0.3,6.1-1.1v-9.6h-0.6v0.2h0.2v9.2l-0.4,0.3
			c-1.4,0.8-3.7,0.9-5.2,0.9c-3.1,0-5.7-1.1-7.4-3c-1.7-1.9-2.5-4.5-2.5-7.5c0-2.9,0.9-5.6,2.6-7.5c1.7-1.9,4.3-3,7.4-3
			c1.6,0,3.4,0.1,5,0.8l0-0.2c-1.3-0.5-3.5-0.7-4.9-0.7H137.2z"/>
	</g>
</g>
</svg>
